<svg width="620" height="607" viewBox="0 0 620 607" fill="none" xmlns="http://www.w3.org/2000/svg">
<g opacity="0.3">
<path d="M250.188 606.289C327.718 606.289 390.568 585.339 390.568 559.496C390.568 533.653 327.718 512.703 250.188 512.703C172.659 512.703 109.809 533.653 109.809 559.496C109.809 585.339 172.659 606.289 250.188 606.289Z" fill="#DB864C"/>
<path d="M438.062 568.202C538.428 568.202 619.791 546.279 619.791 519.236C619.791 492.193 538.428 470.271 438.062 470.271C337.696 470.271 256.333 492.193 256.333 519.236C256.333 546.279 337.696 568.202 438.062 568.202Z" fill="#DB864C"/>
<path d="M114.261 541.047C177.366 541.047 228.522 521.073 228.522 496.434C228.522 471.795 177.366 451.822 114.261 451.822C51.1564 451.822 0 471.795 0 496.434C0 521.073 51.1564 541.047 114.261 541.047Z" fill="#DB864C"/>
</g>
<path d="M75.0457 191.829L28.6796 244.927C27.315 316.352 30.0594 400.111 31.0733 482.803L137.01 504.637L204.104 473.526C204.104 473.526 208.571 332.864 204.828 248.152C205.095 240.147 202.061 232.531 195.276 227.95L164.691 193.247" fill="white"/>
<path d="M134.845 413.933L206.231 382.432C206.574 357.664 206.193 345.123 206.01 318.197C186.532 324.28 134.974 339.604 134.974 339.604C134.974 339.604 68.1008 331.744 28.5806 329.899C28.8321 351.877 29.2286 374.435 29.6555 397.253C43.1033 400.096 121.191 412.37 134.852 413.925L134.845 413.933Z" fill="#4BAC76"/>
<path d="M166.284 195.222C152.974 194.978 104.458 193.751 74.8097 192.287L74.1465 177.391C104.145 177.612 136.316 177.909 166.315 178.13L166.284 195.222Z" fill="#4BAC76"/>
<path d="M96.6356 202.944C73.6431 200.886 72.7206 237.509 97.8096 235.901C108.307 235.23 114.619 229.002 113.613 218.001C112.736 208.395 106.051 203.28 96.6432 202.944" fill="#4BAC76"/>
<path d="M47.7916 355.56C49.9338 355.788 52.076 356.025 54.2182 356.253C59.3641 356.81 64.5099 357.359 69.6558 357.915C75.9147 358.586 82.1812 359.265 88.4401 359.935C93.8299 360.515 99.2121 361.094 104.602 361.674C107.217 361.956 109.847 362.344 112.469 362.52C112.508 362.52 112.546 362.527 112.584 362.535C113.88 362.672 115.549 361.826 116.434 360.942C117.379 359.996 118.088 358.449 118.027 357.092C117.966 355.735 117.501 354.225 116.434 353.242C115.305 352.205 114.101 351.809 112.584 351.649C110.442 351.42 108.299 351.184 106.157 350.955C101.011 350.398 95.8654 349.85 90.7195 349.293C84.4606 348.622 78.1941 347.944 71.9352 347.273C66.5454 346.693 61.1632 346.114 55.7734 345.535C53.1585 345.253 50.5284 344.864 47.9059 344.688C47.8678 344.688 47.8297 344.681 47.7916 344.673C46.4956 344.536 44.826 345.382 43.9417 346.266C42.9964 347.212 42.2874 348.759 42.3484 350.116C42.4094 351.473 42.8744 352.983 43.9417 353.966C45.07 355.003 46.2745 355.399 47.7916 355.56Z" fill="white"/>
<path d="M49.4691 317.503C51.6113 317.731 53.7535 317.968 55.8957 318.196C61.0415 318.753 66.1874 319.302 71.3333 319.858C77.5922 320.529 83.8587 321.208 90.1176 321.879L106.279 323.617C108.902 323.899 111.524 324.242 114.147 324.463C114.185 324.463 114.223 324.471 114.261 324.478C116.861 324.76 120.185 323.06 121.953 321.292C123.844 319.401 125.262 316.306 125.14 313.599C125.018 310.893 124.088 307.867 121.953 305.907L119.75 304.207C118.05 303.224 116.22 302.728 114.261 302.721C112.119 302.492 109.977 302.256 107.835 302.027C102.689 301.47 97.5429 300.922 92.397 300.365C86.1381 299.694 79.8716 299.016 73.6127 298.345L57.4509 296.607C54.8284 296.325 52.2059 295.982 49.5834 295.76C49.5453 295.76 49.5072 295.753 49.4691 295.745C46.8694 295.463 43.5456 297.163 41.7769 298.932C39.8863 300.822 38.4683 303.918 38.5903 306.624C38.7123 309.33 39.6424 312.357 41.7769 314.316L43.9801 316.016C45.6802 317 47.5098 317.495 49.4691 317.503Z" fill="#4BAC76"/>
<path d="M29.3428 248.312C43.1337 248.731 56.8865 249.837 70.6241 251.041C84.7504 252.276 98.8692 253.656 113.011 254.678C120.604 255.227 128.204 255.676 135.82 255.905C137.383 255.951 138.885 254.495 138.816 252.909C138.74 251.247 137.505 249.966 135.82 249.913C122.029 249.494 108.277 248.388 94.539 247.184C80.4126 245.949 66.2939 244.569 52.1523 243.547C44.5593 242.998 36.9587 242.549 29.3428 242.32C27.78 242.274 26.2781 243.73 26.3467 245.316C26.423 246.978 27.658 248.259 29.3428 248.312Z" fill="#562425"/>
<path d="M133.213 253.275C133.114 285.705 132.687 318.136 132.413 350.566C132.138 382.821 132.024 415.076 132.55 447.323C132.847 465.521 133.343 483.71 134.136 501.893C134.204 503.509 135.462 504.889 137.132 504.889C138.702 504.889 140.196 503.516 140.128 501.893C138.725 469.5 138.237 437.077 138.184 404.655C138.13 372.392 138.504 340.137 138.817 307.882C138.992 289.677 139.152 271.48 139.205 253.275C139.221 249.425 133.228 249.417 133.221 253.275H133.213Z" fill="#562425"/>
<path d="M139.068 250.584C140.082 247.435 141.317 244.355 142.583 241.298C142.781 240.826 142.971 240.361 143.17 239.888C143.391 239.354 142.987 240.315 143.215 239.781C143.337 239.499 143.452 239.225 143.574 238.943C144.001 237.936 144.443 236.93 144.877 235.931C145.792 233.85 146.715 231.776 147.66 229.71C151.464 221.355 155.451 213.076 159.629 204.904C161.39 201.465 163.174 198.035 165.095 194.68C165.872 193.323 165.461 191.349 164.02 190.587C162.579 189.824 160.757 190.213 159.926 191.662C156.076 198.385 152.646 205.369 149.253 212.336C145.106 220.86 141.111 229.459 137.437 238.195C135.943 241.748 134.471 245.323 133.29 248.998C132.809 250.492 133.854 252.329 135.378 252.68C137.017 253.054 138.542 252.185 139.061 250.591L139.068 250.584Z" fill="#562425"/>
<path d="M138.084 253.824C155.009 251.598 171.636 247.755 188.483 245.064C193.591 244.249 198.074 243.646 203.22 243.09C204.767 242.922 206.292 241.832 206.216 240.094C206.147 238.615 204.889 236.922 203.22 237.098C194.346 238.058 185.533 239.423 176.759 241.047C168.761 242.526 160.795 244.165 152.783 245.56C147.926 246.406 142.765 247.214 138.084 247.832C136.537 248.037 135.012 249.059 135.088 250.828C135.149 252.276 136.415 254.037 138.084 253.824Z" fill="#562425"/>
<path d="M154.46 265.617C165.926 264.497 177.346 262.896 188.682 260.83C190.222 260.548 191.236 258.596 190.771 257.147C190.237 255.493 188.743 254.754 187.089 255.059C176.164 257.056 165.476 258.558 154.46 259.633C152.905 259.785 151.388 260.898 151.464 262.629C151.533 264.123 152.79 265.785 154.46 265.625V265.617Z" fill="#562425"/>
<path d="M120.398 427.548C120.36 442.544 120.817 457.539 121.763 472.504C121.862 474.067 123.066 475.569 124.759 475.5C126.299 475.432 127.854 474.181 127.755 472.504C126.809 457.539 126.352 442.544 126.39 427.548C126.39 425.986 125.01 424.484 123.394 424.552C121.778 424.621 120.406 425.864 120.398 427.548Z" fill="#562425"/>
<path d="M35.3429 260.075C35.1294 265.602 34.916 271.129 34.7025 276.656C34.6415 278.219 36.1205 279.721 37.6985 279.652C39.3681 279.576 40.626 278.341 40.6946 276.656C40.908 271.129 41.1215 265.602 41.335 260.075C41.3959 258.512 39.917 257.011 38.3389 257.079C36.6694 257.155 35.4115 258.39 35.3429 260.075Z" fill="#562425"/>
<path d="M334.436 246.574C278.205 247.397 261.357 106.362 257.987 63.4269C255.967 37.7204 254.114 6.73848 278.212 0.51008C304.742 -6.35107 340.29 56.2836 385.978 171.597C396.742 198.775 384.491 234.17 353.41 240.986" fill="#F4B400"/>
<path d="M263.911 74.1381C263.331 73.6425 262.767 73.1318 262.241 72.5829C262.005 72.3389 261.776 72.0797 261.547 71.8205C261.441 71.6909 261.334 71.5613 261.227 71.4393C261.044 71.2183 260.922 71.0277 261.166 71.3631C260.777 70.8142 260.396 70.2653 260.068 69.6859C259.916 69.4267 259.771 69.1599 259.641 68.8855C259.558 68.7178 259.481 68.55 259.397 68.3823C259.146 67.8715 259.512 68.7406 259.397 68.3976C259.214 67.8639 259.009 67.3379 258.856 66.7966C258.772 66.4993 258.704 66.202 258.643 65.9047C258.62 65.7751 258.597 65.6379 258.567 65.5083C258.452 64.9594 258.605 65.9962 258.574 65.615C258.528 65.0737 258.483 64.5325 258.49 63.9912C258.49 63.7396 258.505 63.4957 258.521 63.2517C258.528 63.1297 258.551 63.0077 258.551 62.8858C258.582 62.3064 258.406 63.5643 258.551 62.962C258.658 62.5046 258.742 62.0472 258.879 61.5974C258.917 61.4678 258.993 61.0333 259.108 60.9494C259.009 61.0256 258.81 61.5517 259.001 61.201C259.077 61.0561 259.146 60.896 259.222 60.7512C259.321 60.5606 259.702 59.6839 259.916 59.6382C259.931 59.6382 259.443 60.1718 259.748 59.8669C259.824 59.7906 259.885 59.7068 259.962 59.6229C260.145 59.4247 260.335 59.2494 260.526 59.0588C261.029 58.5709 260.221 59.2265 260.541 59.0283C260.724 58.9139 260.892 58.792 261.075 58.6776C261.258 58.5632 261.456 58.4794 261.639 58.3727C262.05 58.144 261.418 58.4946 261.364 58.4794C261.456 58.5023 261.715 58.3498 261.822 58.3117C262.035 58.2431 262.249 58.1821 262.462 58.1363C262.569 58.1135 262.683 58.0982 262.79 58.0677C263.308 57.9381 262.493 58.1058 262.5 58.0982C262.782 57.8771 263.773 58.0525 264.116 58.0677C264.147 58.0677 264.444 58.0677 264.49 58.1058C264.048 58.0448 263.941 58.0296 264.177 58.0677C264.276 58.083 264.376 58.0982 264.467 58.1211C264.803 58.1821 265.138 58.2659 265.466 58.3574C265.794 58.4489 266.083 58.5556 266.388 58.6624C266.48 58.6928 266.929 58.8834 266.556 58.7233C266.144 58.548 266.762 58.8224 266.838 58.8606C267.608 59.2265 268.34 59.661 269.049 60.1261C269.438 60.3853 269.826 60.6597 270.192 60.9418C270.086 60.8579 269.826 60.6445 270.284 61.0256C270.52 61.2239 270.756 61.4221 270.993 61.6279C272.129 62.6113 273.692 62.8095 274.919 61.8642C276.024 61.0104 276.535 59.2417 275.689 58.0067C275.125 57.1681 274.599 56.3143 274.126 55.4147C273.943 55.0641 273.768 54.7058 273.6 54.3398C273.547 54.2178 273.257 53.486 273.531 54.2026C273.425 53.9205 273.31 53.6385 273.211 53.3488C272.944 52.594 272.716 51.8241 272.54 51.0465C272.449 50.6348 272.38 50.2308 272.304 49.8191C272.22 49.3464 272.304 49.9944 272.327 50.0097C272.266 49.9868 272.258 49.2931 272.251 49.2092C272.197 48.5002 272.19 47.7912 272.228 47.0822C272.243 46.7392 272.22 46.297 272.327 45.9692C272.068 46.7697 272.281 46.2894 272.327 46.0455C272.365 45.8396 272.403 45.6338 272.449 45.4279C272.586 44.7723 272.769 44.132 272.998 43.4992C273.044 43.3696 273.105 43.24 273.15 43.1028C273.272 42.7216 272.807 43.8041 273.082 43.2781C273.257 42.9351 273.409 42.5844 273.6 42.2489C273.73 42.0126 273.874 41.7839 274.019 41.5628C274.103 41.4332 274.202 41.3036 274.286 41.174C274.66 40.6251 274.187 41.2731 274.195 41.2808C274.118 41.1435 275.3 40.0839 275.453 39.9543C275.491 39.9238 275.796 39.7027 275.796 39.6646C275.803 39.8323 275.155 40.1144 275.658 39.7789C275.864 39.6417 276.062 39.5045 276.268 39.3825C276.52 39.23 276.779 39.1157 277.031 38.9708C277.519 38.6964 276.314 39.2224 276.84 39.0471C277 38.9937 277.153 38.9327 277.313 38.8794C277.564 38.7955 277.816 38.7269 278.067 38.6735C278.205 38.643 278.349 38.6202 278.487 38.5897C279.036 38.4677 277.694 38.6354 278.258 38.6202C278.502 38.6202 278.738 38.5897 278.982 38.5897C279.127 38.5897 279.28 38.5897 279.424 38.6049C279.524 38.6049 279.623 38.6202 279.722 38.6278C280.034 38.6583 279.92 38.643 279.371 38.5744C279.531 38.6811 279.92 38.6735 280.118 38.7193C280.423 38.7955 280.728 38.8794 281.025 38.9861C281.124 39.0242 281.414 39.0776 281.483 39.1614C281.216 38.8489 280.941 38.9022 281.376 39.1309C281.689 39.291 281.994 39.4511 282.291 39.6341C282.443 39.7256 282.596 39.8247 282.748 39.9238C282.847 39.9924 282.954 40.061 283.053 40.1372C283.305 40.3278 283.259 40.2821 282.901 40.0076C282.992 39.9695 283.709 40.6938 283.808 40.7776C284.502 41.4256 285.142 42.1346 285.729 42.8741C285.272 42.2947 285.767 42.9427 285.836 43.0342C286.026 43.3086 286.217 43.5831 286.4 43.8575C286.69 44.2997 286.964 44.7495 287.231 45.2069C287.917 46.4038 288.512 47.6388 289.061 48.9043C289.648 50.2689 291.569 50.6424 292.796 50.1317C294.023 49.6209 295.083 47.9894 294.527 46.602C294.305 46.0531 294.115 45.4966 293.97 44.9172C293.894 44.6275 293.848 44.3302 293.787 44.0405C293.68 43.5449 293.848 44.2844 293.825 44.3302C293.871 44.2387 293.787 43.9566 293.779 43.8346C293.757 43.4763 293.94 42.7521 293.818 42.4395C293.978 42.8436 293.673 43.1485 293.787 42.7292C293.818 42.6149 293.833 42.4929 293.863 42.3785C293.917 42.1498 293.993 41.9364 294.062 41.7077C294.283 40.9987 293.718 42.3176 294.077 41.6772C294.161 41.5247 294.244 41.3646 294.336 41.2122C294.549 40.8691 294.953 40.648 294.321 41.174C294.481 41.0444 294.603 40.8386 294.748 40.6861C294.892 40.5337 295.06 40.3888 295.22 40.244C295.708 39.7866 294.748 40.5489 295.121 40.3126C295.495 40.0762 295.845 39.8399 296.234 39.6493C296.333 39.6036 296.44 39.5655 296.532 39.5121C296.844 39.3368 295.754 39.7866 296.242 39.6417C296.41 39.5883 296.57 39.5197 296.737 39.474C297.149 39.3444 297.622 39.3291 298.018 39.1767C297.18 39.4816 297.606 39.2224 298.011 39.1995C298.186 39.1919 298.361 39.1843 298.537 39.1843C298.758 39.1843 298.979 39.1843 299.192 39.2072C299.276 39.2072 299.367 39.23 299.451 39.23C299.977 39.2453 298.659 39.0776 299.177 39.1919C299.558 39.2758 299.939 39.3444 300.32 39.4587C300.511 39.5197 300.74 39.6493 300.93 39.6798C300.915 39.6798 300.198 39.3291 300.572 39.535C300.686 39.596 300.808 39.6493 300.915 39.7103C301.083 39.8018 301.251 39.9009 301.418 40.0076C301.51 40.0686 301.594 40.1296 301.685 40.1906C302.043 40.4117 301.403 39.9771 301.388 39.9543C301.594 40.2668 302.051 40.5946 302.318 40.8767C302.607 41.1817 302.097 40.6175 302.097 40.587C302.112 40.6861 302.264 40.831 302.325 40.9225C302.478 41.1588 302.592 41.4104 302.729 41.6543C302.905 41.9669 302.524 41.6391 302.6 41.3341C302.585 41.3875 302.729 41.6924 302.752 41.7458C302.829 41.9897 302.897 42.2337 302.958 42.4777C302.989 42.6073 303.012 42.7369 303.034 42.8665C303.172 43.5144 303.019 42.4014 303.019 42.7216C303.019 43.0418 303.065 43.3544 303.065 43.6669C303.065 43.9795 303.05 44.2844 303.027 44.5894C303.012 44.7495 302.989 44.9095 302.981 45.0696C302.951 45.2983 302.966 45.1992 303.019 44.7723C302.996 44.9095 302.973 45.0468 302.951 45.1764C302.676 46.7087 303.37 48.4773 305.039 48.8585C306.503 49.194 308.424 48.4164 308.722 46.7697C309.255 43.7813 309.187 40.5565 307.502 37.9112C306.137 35.769 303.995 34.2366 301.54 33.5963C296.89 32.3918 291.18 34.2138 288.923 38.6811C287.406 41.6848 287.536 45.1306 288.771 48.2105L294.237 45.9082C291.241 38.948 285.173 31.1644 276.627 32.8873C269.88 34.2519 266.274 41.5247 266.236 47.8675C266.213 52.5712 267.905 57.191 270.535 61.0561L275.239 57.4273C270.619 53.4174 263.438 49.8115 257.652 53.7909C252.811 57.1224 251.553 63.5033 253.238 68.9083C254.396 72.6286 256.737 75.8915 259.687 78.3996C260.876 79.4135 262.767 79.6575 263.918 78.3996C264.94 77.2866 265.191 75.2511 263.918 74.1686L263.911 74.1381Z" fill="#562425"/>
<path d="M302.165 97.7253C300.351 96.6047 299.49 95.9948 297.98 94.5006C297.454 93.9822 296.974 93.4257 296.509 92.8539C296.966 93.418 296.341 92.6023 296.242 92.4498C296.021 92.122 295.815 91.7866 295.624 91.4435C295.457 91.1462 295.312 90.8337 295.159 90.5287C294.954 90.1094 295.251 90.6964 295.228 90.6964C295.22 90.6964 295.106 90.3839 295.091 90.3381C294.877 89.7511 294.771 89.1565 294.611 88.5619C294.45 87.9672 294.641 89.2937 294.626 88.661C294.626 88.5466 294.603 88.4323 294.595 88.3179C294.58 88.0358 294.572 87.7538 294.58 87.4793C294.58 87.4031 294.58 86.8313 294.626 86.8237C294.649 86.8237 294.473 87.6394 294.595 87.06C294.633 86.8771 294.664 86.6941 294.71 86.5111C294.763 86.3053 294.816 86.1071 294.885 85.9089C294.893 85.8784 295.037 85.4667 295.045 85.4667C295.083 85.4743 294.687 86.1833 294.931 85.7564C294.992 85.6497 295.64 84.3918 295.724 84.4375C295.769 84.468 295.205 85.0398 295.594 84.6205C295.678 84.529 295.762 84.4299 295.853 84.3308C295.998 84.1783 296.143 84.0335 296.295 83.8963C296.326 83.8734 296.623 83.5761 296.654 83.5913C296.676 83.6066 295.998 84.0411 296.425 83.7743C296.669 83.6142 296.905 83.4465 297.164 83.3016C297.378 83.1797 297.599 83.0882 297.812 82.9662C298.316 82.6765 297.256 83.1568 297.629 83.0424C297.759 83.0043 297.889 82.9433 298.018 82.8976C298.163 82.8442 299.695 82.4554 299.695 82.4859C299.695 82.5088 298.887 82.5622 299.436 82.524C299.589 82.5164 299.741 82.4935 299.894 82.4859C300.176 82.4707 300.458 82.463 300.732 82.463C301.052 82.463 301.38 82.4859 301.7 82.5088C301.746 82.5088 302.097 82.5469 302.097 82.5469C302.097 82.5774 301.395 82.4326 302.104 82.5622C302.89 82.707 303.66 82.9128 304.407 83.1797C304.552 83.233 304.696 83.2864 304.834 83.3398C305.383 83.5303 304.399 83.111 305.1 83.4541C305.512 83.6523 305.916 83.8429 306.32 84.064C308.356 85.1694 309.385 86.008 310.963 87.4869C311.901 88.3636 313.456 88.6838 314.592 87.952C315.621 87.2887 316.467 85.8174 315.964 84.5748C315.263 82.8442 314.714 81.0603 314.355 79.2231C314.272 78.7885 314.195 78.3464 314.134 77.9042C314.241 78.6513 314.104 77.523 314.081 77.2943C314.012 76.471 313.982 75.64 313.997 74.8167C314.012 74.1001 314.066 73.3987 314.142 72.6897C314.218 71.9807 314.035 73.2081 314.127 72.7736C314.165 72.6135 314.18 72.4381 314.211 72.278C314.279 71.8892 314.363 71.5005 314.455 71.1193C314.599 70.5094 314.775 69.9071 314.988 69.3125C315.08 69.0533 315.278 68.1461 315.08 69.0304C315.148 68.7179 315.377 68.3824 315.522 68.1004C315.773 67.6201 316.055 67.1551 316.36 66.7053C316.383 66.6748 316.612 66.3241 316.635 66.3317C316.681 66.347 316.109 66.934 316.498 66.5223C316.681 66.3241 316.856 66.1183 317.047 65.9277C317.237 65.7371 317.428 65.577 317.618 65.4016C318.053 64.9976 316.97 65.7981 317.664 65.3864C317.87 65.2644 318.068 65.1348 318.282 65.0205C318.358 64.9824 318.434 64.9519 318.51 64.9061C318.922 64.6774 317.702 65.1424 318.381 64.9747C318.579 64.929 318.785 64.868 318.975 64.807C319.631 64.6012 318.213 64.7994 318.907 64.807C319.112 64.807 319.318 64.807 319.524 64.807C319.524 64.807 319.76 64.8375 319.768 64.8299C319.539 65.0281 318.93 64.6545 319.593 64.8299C319.799 64.8832 320.004 64.9595 320.218 65.0128C320.706 65.1424 319.646 64.6927 319.936 64.8909C320.027 64.9519 320.149 64.99 320.248 65.0433C320.462 65.1577 320.668 65.2797 320.866 65.4093C320.889 65.4245 321.232 65.6685 321.232 65.6685C321.186 65.7066 320.591 65.112 321.11 65.5999C321.354 65.8286 321.598 66.0573 321.826 66.3012C321.926 66.4079 322.025 66.5223 322.124 66.6367C322.185 66.7053 322.238 66.7739 322.299 66.8501C322.497 67.0941 322.452 67.0407 322.177 66.69C322.33 66.629 323.404 68.6264 323.511 68.8246C323.732 69.2439 323.931 69.6784 324.136 70.113C324.19 70.2197 324.357 70.6314 324.136 70.0977C324.274 70.4255 324.403 70.7533 324.525 71.0888C324.937 72.1942 325.28 73.3301 325.585 74.4736C325.989 75.9831 327.735 77.058 329.267 76.5625C330.799 76.0669 331.79 74.5041 331.356 72.8803C329.702 66.6824 325.615 57.5037 317.634 59.0055C311.344 60.1948 308.645 67.5591 308.104 73.1319C307.677 77.5459 308.539 82.1047 310.185 86.1986L315.186 83.2864C309.835 78.2701 301.99 74.3974 294.786 77.8432C292.125 79.1163 290.158 81.4644 289.175 84.2241C288.108 87.2201 288.618 90.4906 289.876 93.3342C291.706 97.4814 295.365 100.615 299.147 102.955C300.481 103.778 302.501 103.283 303.24 101.88C303.98 100.477 303.591 98.663 302.165 97.7863V97.7253Z" fill="#562425"/>
<path d="M277.968 137.947C277.754 137.695 277.541 137.444 277.335 137.184C277.236 137.063 277.137 136.933 277.038 136.811C277.099 136.887 277.396 137.299 277.076 136.857C276.725 136.369 276.375 135.888 276.047 135.385C275.46 134.486 274.941 133.548 274.484 132.58C274.438 132.481 274.354 132.344 274.331 132.244C274.339 132.29 274.598 132.931 274.423 132.458C274.354 132.267 274.27 132.077 274.202 131.879C274.042 131.429 273.897 130.979 273.783 130.514C273.683 130.133 273.615 129.744 273.539 129.355C273.417 128.677 273.577 129.965 273.554 129.477C273.539 129.233 273.508 128.989 273.5 128.745C273.485 128.417 273.485 128.09 273.5 127.762C273.508 127.579 273.531 127.396 273.546 127.221C273.561 126.893 273.386 128.052 273.546 127.289C273.615 126.969 273.683 126.656 273.775 126.344C273.821 126.184 273.882 126.024 273.935 125.864C273.958 125.787 273.996 125.711 274.026 125.627C274.156 125.193 273.729 126.23 273.897 125.94C274.225 125.368 274.552 124.812 274.888 124.247C274.934 124.171 274.377 124.85 274.758 124.423C274.865 124.301 274.972 124.179 275.079 124.057C275.3 123.82 275.536 123.592 275.78 123.378C275.902 123.272 276.031 123.172 276.153 123.066C276.489 122.761 275.475 123.531 276.039 123.165C276.314 122.982 276.588 122.799 276.87 122.631C277.152 122.463 277.457 122.319 277.754 122.166C277.876 122.105 278.402 121.876 277.853 122.113C277.305 122.349 277.953 122.082 278.082 122.037C278.723 121.808 279.386 121.633 280.057 121.503C280.224 121.472 280.407 121.465 280.567 121.419C280.278 121.503 279.79 121.503 280.354 121.457C280.728 121.427 281.093 121.396 281.467 121.396C281.795 121.396 282.13 121.396 282.458 121.419C282.611 121.427 282.771 121.442 282.923 121.457C283.015 121.465 283.098 121.48 283.19 121.488C283.716 121.526 282.55 121.373 282.854 121.442C283.556 121.61 284.257 121.709 284.951 121.937C285.271 122.044 285.591 122.212 285.912 122.296C285.058 122.082 285.53 122.136 285.828 122.273C286.018 122.364 286.201 122.456 286.384 122.555C286.697 122.723 286.994 122.906 287.291 123.096C287.451 123.203 287.604 123.31 287.764 123.416C288.366 123.828 287.337 123.035 287.787 123.432C288.45 124.011 289.045 124.613 289.624 125.277C289.929 125.62 289.456 125.063 289.441 125.033C289.495 125.147 289.601 125.246 289.678 125.345C289.815 125.536 289.952 125.734 290.082 125.94C290.348 126.351 290.592 126.786 290.821 127.221C290.935 127.449 291.042 127.678 291.157 127.914C291.439 128.509 290.943 127.327 291.225 128.09C291.416 128.608 291.599 129.126 291.744 129.66C291.888 130.194 292.018 130.727 292.125 131.269C292.186 131.566 292.231 131.871 292.285 132.168C292.376 132.717 292.285 132.046 292.262 131.993C292.331 132.168 292.315 132.443 292.331 132.633C292.491 134.188 293.596 135.706 295.327 135.629C297.057 135.553 298.201 134.31 298.323 132.633C298.345 132.267 298.391 131.909 298.422 131.543C298.33 132.42 298.467 131.307 298.506 131.078C298.643 130.339 298.818 129.614 299.047 128.898C299.146 128.585 299.253 128.273 299.367 127.968C299.42 127.815 299.489 127.67 299.542 127.518C299.672 127.114 299.222 128.196 299.504 127.617C299.802 127.007 300.091 126.397 300.442 125.81C300.732 125.33 301.037 124.751 301.433 124.347C301.402 124.377 300.96 124.911 301.288 124.545C301.402 124.415 301.509 124.286 301.616 124.156C301.814 123.927 302.028 123.699 302.241 123.485C302.622 123.104 303.034 122.761 303.446 122.41C303.743 122.159 302.805 122.852 303.278 122.547C303.362 122.494 303.446 122.425 303.529 122.364C303.781 122.189 304.04 122.029 304.299 121.876C304.513 121.755 304.734 121.633 304.955 121.526C305.085 121.457 305.222 121.404 305.351 121.335C305.656 121.183 305.405 121.488 305.039 121.465C305.451 121.488 306.091 121.099 306.51 121.007C306.724 120.962 306.975 120.946 307.181 120.885C306.304 121.16 306.777 120.931 307.181 120.916C307.402 120.908 307.623 120.908 307.837 120.916C307.921 120.916 308.012 120.931 308.096 120.931C308.835 120.962 307.463 120.786 307.943 120.901C308.37 121 308.774 121.114 309.186 121.236C309.575 121.35 308.447 120.84 309.125 121.221C309.339 121.343 309.552 121.45 309.75 121.579C309.842 121.64 309.979 121.777 310.078 121.808C309.628 121.686 309.567 121.373 309.796 121.587C309.964 121.747 310.147 121.892 310.307 122.052C310.467 122.212 310.627 122.41 310.787 122.585C311.176 122.99 310.391 121.968 310.68 122.456C310.757 122.585 310.856 122.707 310.939 122.837C311.115 123.111 311.267 123.386 311.412 123.676C311.466 123.775 311.504 123.881 311.557 123.973C311.801 124.407 311.321 123.279 311.595 124.057C311.824 124.72 312.03 125.376 312.182 126.062C312.274 126.473 312.342 126.885 312.403 127.297C312.289 126.542 312.373 127.076 312.388 127.274C312.411 127.541 312.441 127.808 312.457 128.082C312.525 129.096 312.525 130.102 312.479 131.116C312.411 132.679 313.905 134.181 315.475 134.112C317.153 134.036 318.395 132.801 318.472 131.116C318.731 124.972 316.993 117.097 310.154 115.267C304.46 113.742 298.963 117.386 295.83 121.892C293.642 125.04 292.59 128.844 292.315 132.633H298.3C297.819 127.96 296.295 123.348 292.872 119.986C290.082 117.241 286.399 115.694 282.511 115.442C279.188 115.229 275.566 116.136 272.86 118.11C269.704 120.413 267.79 123.721 267.531 127.64C267.165 133.106 270.344 138.198 273.737 142.193C274.751 143.39 276.939 143.314 277.968 142.193C279.142 140.92 279.05 139.243 277.968 137.962V137.947Z" fill="#562425"/>
<path d="M312.472 165.704C312.381 165.597 312.297 165.491 312.205 165.384C311.893 165.018 312.617 165.956 312.35 165.567C312.19 165.338 312.03 165.109 311.885 164.865C311.756 164.652 311.634 164.439 311.527 164.217C311.473 164.111 311.428 163.996 311.374 163.89C311.229 163.615 311.611 164.408 311.557 164.332C311.519 164.271 311.496 164.179 311.473 164.111C311.306 163.646 311.184 163.181 311.085 162.693C310.978 162.182 311.176 162.937 311.123 163.051C311.153 162.99 311.092 162.799 311.092 162.723C311.069 162.495 311.062 162.258 311.069 162.022C311.069 161.808 311.077 161.595 311.1 161.389C311.115 161.244 311.169 160.81 311.085 161.42C311.001 162.03 311.069 161.549 311.092 161.404C311.169 160.977 311.283 160.558 311.42 160.146C311.458 160.032 311.504 159.918 311.542 159.803C311.717 159.338 311.489 160.063 311.397 160.131C311.519 160.032 311.611 159.674 311.687 159.529C311.885 159.148 312.114 158.782 312.365 158.431C312.411 158.363 312.526 158.263 312.548 158.18C312.518 158.302 312.022 158.835 312.335 158.462C312.48 158.294 312.617 158.126 312.769 157.966C313.059 157.661 313.364 157.379 313.684 157.105C314.104 156.746 313.25 157.425 313.433 157.295C313.517 157.242 313.593 157.181 313.669 157.12C313.844 156.998 314.02 156.884 314.203 156.777C314.37 156.678 314.538 156.586 314.706 156.495C314.79 156.449 314.881 156.411 314.965 156.365C315.438 156.129 314.53 156.533 314.637 156.495C315.003 156.373 315.361 156.236 315.735 156.144C315.895 156.106 316.124 156.114 316.269 156.045C316.185 156.083 315.354 156.137 315.826 156.114C315.933 156.114 316.032 156.098 316.139 156.098C316.33 156.098 316.52 156.098 316.711 156.114C316.787 156.114 316.901 156.152 316.978 156.137C316.825 156.167 316.07 155.976 316.574 156.091C316.749 156.129 316.917 156.167 317.084 156.22C317.168 156.243 317.252 156.281 317.336 156.304C317.801 156.449 316.673 155.976 316.993 156.159C317.183 156.266 317.374 156.35 317.557 156.464C317.648 156.525 317.732 156.602 317.831 156.647C317.915 156.693 317.176 156.098 317.565 156.449C317.74 156.609 317.915 156.762 318.075 156.937C318.159 157.028 318.235 157.12 318.319 157.211C318.67 157.608 317.938 156.647 318.152 156.99C318.464 157.494 318.739 157.981 319.013 158.507C319.15 158.774 318.792 158.05 318.838 158.096C318.884 158.134 318.914 158.294 318.937 158.347C318.998 158.5 319.051 158.652 319.105 158.805C319.227 159.155 319.326 159.514 319.417 159.872C319.806 161.389 321.582 162.456 323.099 161.961C324.616 161.465 325.607 159.903 325.188 158.279C324.479 155.511 323.054 152.843 320.576 151.288C318.556 150.015 315.956 149.801 313.692 150.48C308.912 151.913 305.535 156.419 305.093 161.313C304.803 164.507 306.183 167.534 308.226 169.905C309.247 171.094 311.42 171.033 312.457 169.905C313.623 168.639 313.547 166.947 312.457 165.674L312.472 165.704Z" fill="#562425"/>
<path d="M367.537 265.648C339.048 212.718 299.07 156.266 239.995 137.001C263.651 190.907 289.129 290.752 367.537 265.648Z" fill="#4BAC76"/>
<path d="M359.639 270.009C324.052 205.003 324.357 105.509 371.257 48.1267C394.059 103.763 447.736 247.916 359.639 270.009Z" fill="#4BAC76"/>
<path d="M349.194 258.962C350.94 272.181 351.741 285.523 351.573 298.856C351.573 299.321 351.573 299.832 351.893 300.167C352.198 300.495 352.694 300.541 353.143 300.548C355.087 300.571 357.001 300.106 358.884 299.649C367.224 297.629 375.556 295.601 383.897 293.581C384.27 293.489 384.667 293.382 384.91 293.085C385.353 292.551 385.055 291.759 384.75 291.149C378.446 278.494 372.141 265.831 365.844 253.176" fill="#4BAC76"/>
<path d="M365.326 259.313C363.626 241.794 362.528 224.214 362.048 206.612C361.568 189.009 361.705 171.65 362.437 154.192C362.856 144.267 363.473 134.348 364.274 124.453C364.403 122.89 362.81 121.388 361.278 121.457C359.547 121.533 358.419 122.776 358.282 124.453C356.856 142.002 356.033 159.597 355.827 177.2C355.621 194.681 356.025 212.162 357.032 229.612C357.603 239.53 358.373 249.433 359.334 259.321C359.486 260.876 360.599 262.393 362.33 262.317C363.824 262.248 365.486 260.99 365.326 259.321V259.313Z" fill="#562425"/>
<path d="M365.928 261.714C373.399 249.852 379.574 237.113 383.912 223.772C388.166 210.667 390.605 196.823 390.323 183.025C390.163 175.195 389.119 167.358 387.144 159.773C386.748 158.256 384.987 157.188 383.462 157.684C381.937 158.18 380.946 159.742 381.373 161.366C382.212 164.598 382.89 167.877 383.386 171.185C383.416 171.399 383.447 171.612 383.477 171.826C383.569 172.451 383.523 172.123 383.5 171.986C383.554 172.359 383.599 172.733 383.645 173.099C383.752 174.006 383.851 174.905 383.935 175.813C384.08 177.414 384.194 179.015 384.263 180.615C384.407 183.985 384.392 187.362 384.217 190.732C384.133 192.394 384.003 194.048 383.843 195.71C383.767 196.51 383.676 197.311 383.584 198.111C383.462 199.141 383.432 199.362 383.317 200.2C382.364 206.856 380.847 213.419 378.888 219.846C377.882 223.139 376.753 226.387 375.518 229.604C374.283 232.821 373.186 235.406 371.73 238.577C368.528 245.522 364.846 252.231 360.767 258.703C359.928 260.03 360.447 262.057 361.842 262.797C363.313 263.574 365.044 263.14 365.936 261.722L365.928 261.714Z" fill="#562425"/>
<path d="M363.481 258.505C354.211 247.908 344.354 237.822 333.978 228.308C323.488 218.702 312.465 209.684 300.999 201.275C294.572 196.564 288.001 192.058 281.3 187.759C279.981 186.912 277.938 187.446 277.206 188.834C276.421 190.32 276.871 192.028 278.281 192.927C290.029 200.459 301.38 208.639 312.038 217.277C322.894 226.067 333.262 235.451 343.096 245.377C348.661 250.996 354.051 256.79 359.265 262.743C360.302 263.925 362.452 263.879 363.496 262.743C364.655 261.486 364.602 259.77 363.496 258.512L363.481 258.505Z" fill="#562425"/>
<path d="M362.757 257.895C361.522 257.818 360.294 257.719 359.067 257.597C358.48 257.536 357.893 257.468 357.298 257.399C357.154 257.384 357.001 257.361 356.856 257.346C356.917 257.353 357.276 257.407 356.917 257.353C356.559 257.3 356.231 257.254 355.888 257.209C353.403 256.835 350.925 256.347 348.486 255.76C346.046 255.173 343.713 254.502 341.373 253.725C340.153 253.321 338.949 252.894 337.744 252.436C337.188 252.223 336.639 252.009 336.09 251.788C335.815 251.682 335.541 251.567 335.267 251.453C335.129 251.399 334.992 251.338 334.855 251.285C335.152 251.407 334.908 251.308 334.748 251.239C330.166 249.257 325.752 246.917 321.552 244.226C319.471 242.892 317.45 241.474 315.491 239.979C315.217 239.774 315.461 239.957 315.506 239.995C315.392 239.903 315.27 239.812 315.156 239.72C314.881 239.507 314.614 239.293 314.34 239.08C313.837 238.676 313.341 238.272 312.853 237.86C311.908 237.067 310.978 236.252 310.071 235.421C308.028 233.56 306.076 231.601 304.216 229.558C303.255 228.498 302.318 227.416 301.411 226.31C300.976 225.777 300.541 225.236 300.115 224.694C299.909 224.427 300.092 224.664 300.13 224.717C300.008 224.557 299.893 224.405 299.771 224.245C299.535 223.932 299.299 223.612 299.063 223.292C298.14 222.034 296.425 221.279 294.969 222.217C293.726 223.017 292.903 224.961 293.894 226.31C300.183 234.864 307.868 242.228 316.665 248.182C325.287 254.014 334.954 258.405 345.017 261.066C350.803 262.598 356.765 263.536 362.742 263.902C364.304 264.001 365.806 262.454 365.738 260.906C365.661 259.206 364.419 258.017 362.742 257.91L362.757 257.895Z" fill="#562425"/>
<path d="M562.988 45.687C563.567 34.9455 562.965 27.1924 563.918 15.1168C565.183 10.7714 572.662 13.8818 595.853 21.7797C597.423 22.3591 597.126 24.0515 596.493 25.3399C591.873 34.732 586.689 43.8498 580.987 52.6244" fill="#562425"/>
<path d="M590.089 49.842C566.487 120.428 580.362 110.174 591.065 144.564C602.432 181.088 590.852 226.181 539.675 343.088C530.1 364.967 517.056 360.751 483.414 350.482L484.816 350.887C451.06 341.197 437.65 338.071 441.301 314.469C460.81 188.353 475.226 144.084 504.409 119.353C531.884 96.0633 538.105 112.156 556.043 39.9314" fill="#388159"/>
<path d="M556.257 48.1419C566.007 50.9778 575.758 53.8138 585.516 56.6497C589.282 57.7475 593.856 55.4833 594.816 51.542C595.777 47.5854 593.749 43.4153 589.709 42.2413C579.958 39.4053 570.2 36.5694 560.45 33.7335C556.683 32.6357 552.109 34.8999 551.149 38.8412C550.188 42.7978 552.216 46.9679 556.257 48.1419Z" fill="#388159"/>
<path d="M525.816 116.342C514.701 121.808 505.24 130.567 498.768 141.118C496.885 144.19 495.314 147.423 493.942 150.754C493.348 152.21 494.59 154.109 496.031 154.436C497.769 154.833 499.073 153.903 499.713 152.347C499.744 152.279 499.934 151.821 499.751 152.248C499.805 152.111 499.866 151.974 499.927 151.844C500.064 151.532 500.201 151.212 500.346 150.899C500.674 150.182 501.009 149.473 501.36 148.772C502 147.499 502.679 146.249 503.403 145.021C504.127 143.794 504.943 142.513 505.782 141.301C506.17 140.737 506.574 140.173 506.978 139.624C507.184 139.349 507.39 139.075 507.596 138.801C507.52 138.907 507.299 139.174 507.672 138.709C507.794 138.557 507.916 138.404 508.038 138.244C509.883 135.949 511.88 133.777 514.023 131.749C515.059 130.773 516.127 129.828 517.224 128.92C517.491 128.699 517.758 128.486 518.025 128.272C518.177 128.15 518.33 128.028 518.49 127.907C518.437 127.945 518.193 128.135 518.467 127.922C519.092 127.441 519.725 126.976 520.365 126.527C523.056 124.628 525.885 122.951 528.843 121.503C530.253 120.809 530.748 118.697 529.918 117.409C528.987 115.968 527.326 115.595 525.824 116.334L525.816 116.342Z" fill="#562425"/>
<path d="M525.762 130.742C517.605 133.662 513.054 141.232 509.227 148.52C508.502 149.908 508.83 151.837 510.302 152.614C511.682 153.346 513.618 153.018 514.395 151.539C515.257 149.9 516.134 148.261 517.079 146.668C517.567 145.852 518.07 145.036 518.604 144.251C518.832 143.908 519.069 143.573 519.305 143.237C519.45 143.039 519.595 142.841 519.74 142.643C520.22 141.979 519.358 143.108 519.869 142.475C520.982 141.088 522.187 139.83 523.536 138.678C524.138 138.168 523.041 139.029 523.673 138.564C523.864 138.427 524.054 138.29 524.253 138.152C524.58 137.931 524.908 137.718 525.251 137.52C525.663 137.276 526.082 137.055 526.509 136.856C526.654 136.788 527.325 136.521 526.669 136.773C526.898 136.689 527.119 136.597 527.348 136.521C528.819 135.995 529.963 134.455 529.437 132.839C528.972 131.39 527.333 130.186 525.755 130.75L525.762 130.742Z" fill="#562425"/>
<path d="M493.187 171.482C482.873 210.118 478.756 229.734 466.36 288.869C489.399 296.92 509.235 302.149 533.272 306.716C546.666 274.202 560.823 232.859 572.396 195.283C544.158 185.388 521.989 178.008 493.187 171.482Z" fill="#4BAC76"/>
<path d="M500.445 198.073C514.137 201.077 527.654 204.85 540.919 209.386C544.723 210.69 548.504 212.055 552.27 213.48C553.52 213.953 555.35 213.579 556.463 212.931C557.576 212.283 558.666 210.98 558.963 209.676C559.672 206.573 558.018 204.065 555.167 202.983C542.062 198.02 528.675 193.796 515.09 190.351C511.194 189.359 507.276 188.437 503.35 187.576C500.575 186.966 497.335 188.407 496.656 191.372C496.031 194.124 497.48 197.41 500.453 198.065L500.445 198.073Z" fill="#F4B400"/>
<path d="M526.136 236.892C527.47 232.372 523.513 227.142 518.802 227.188C514.091 227.233 510.241 232.547 511.666 237.037C508.411 233.347 502.129 232.615 498.424 235.848C494.719 239.08 494.864 245.888 498.973 248.594C494.094 246.971 487.988 249.349 486.158 254.16C484.329 258.962 488.003 265.229 493.141 265.336C488.133 266.578 485.632 273.531 488.712 277.67C491.792 281.81 499.172 281.429 501.802 276.984C504.096 281.032 508.907 284.013 513.382 282.763C517.857 281.513 520.197 274.873 516.652 271.869C520.296 273.798 525.053 274.125 528.4 271.709C531.747 269.292 532.707 263.765 529.681 260.96C535.566 261.15 540.59 254.922 539.569 249.12C538.555 243.319 532.212 239.202 526.41 240.17" fill="#B51A36"/>
<path d="M526.966 242.335C524.199 239.583 521.965 233.424 522.125 229.528C522.285 225.632 523.574 221.874 525.007 218.245C527.652 221.432 529.764 225.129 530.641 229.177C531.517 233.225 531.068 237.632 528.933 241.177C533.766 233.141 544.729 229.444 553.443 232.905C553.824 233.058 554.266 233.347 554.182 233.744C554.152 233.889 554.053 234.011 553.953 234.117C547.481 241.634 536.526 244.973 526.959 242.335" fill="#562425"/>
<path d="M531.533 240.025C536.458 235.383 539.393 229.101 540.102 222.408C540.27 220.845 538.608 219.35 537.106 219.411C535.345 219.488 534.293 220.73 534.11 222.408C534.095 222.575 534.072 222.735 534.057 222.903C534.079 222.644 534.118 222.514 534.057 222.85C533.996 223.216 533.935 223.589 533.858 223.955C533.721 224.649 533.546 225.335 533.348 226.006C533.149 226.677 532.921 227.348 532.662 228.011C532.639 228.072 532.44 228.567 532.578 228.232C532.715 227.896 532.509 228.384 532.479 228.445C532.326 228.788 532.166 229.124 531.998 229.459C531.381 230.687 530.664 231.853 529.864 232.966C529.787 233.073 529.422 233.538 529.803 233.058C529.696 233.187 529.597 233.317 529.49 233.446C529.277 233.706 529.063 233.957 528.842 234.201C528.347 234.758 527.821 235.291 527.279 235.802C526.136 236.877 526.113 238.966 527.279 240.033C528.507 241.154 530.291 241.184 531.51 240.033L531.533 240.025Z" fill="#562425"/>
<path d="M515.753 242.625C514.213 241.977 512.33 241.97 510.729 242.419C508.846 242.953 507.299 244.127 506.201 245.736C505.278 247.085 504.783 248.937 504.897 250.569C505.034 252.505 505.759 254.228 507.077 255.654C508.518 257.201 510.485 258.002 512.559 258.177C513.283 258.238 514.175 257.796 514.678 257.3C515.181 256.805 515.585 255.928 515.555 255.181C515.479 253.443 514.236 252.33 512.559 252.185C512.467 252.185 512.376 252.17 512.284 252.155L513.077 252.261C512.612 252.193 512.17 252.071 511.735 251.888L512.452 252.193C512.071 252.017 511.713 251.804 511.369 251.552L511.972 252.017C511.598 251.728 511.278 251.407 510.981 251.034L511.446 251.636C511.194 251.301 510.981 250.942 510.813 250.554L511.118 251.27C510.958 250.874 510.851 250.462 510.79 250.035L510.897 250.828C510.843 250.401 510.843 249.974 510.897 249.547L510.79 250.34C510.851 249.86 510.973 249.41 511.148 248.96L510.843 249.677C511.034 249.235 511.27 248.831 511.56 248.45L511.095 249.052C511.339 248.754 511.606 248.488 511.911 248.251L511.308 248.716C511.652 248.457 512.025 248.244 512.421 248.076L511.705 248.381C512.155 248.198 512.604 248.076 513.085 248.015L512.292 248.122C512.772 248.068 513.237 248.068 513.717 248.137L512.925 248.03C513.352 248.099 513.756 248.213 514.16 248.381C514.823 248.663 515.875 248.427 516.462 248.076C517.079 247.71 517.674 247.001 517.834 246.284C518.01 245.522 517.971 244.661 517.529 243.982C517.087 243.304 516.5 242.93 515.738 242.61L515.753 242.625Z" fill="#562425"/>
<path d="M500.536 257.59C498.79 257.201 497.044 257.445 495.474 258.307C493.903 259.168 492.836 260.594 492.241 262.241C491.723 263.674 491.754 265.481 492.264 266.914C492.882 268.66 493.964 270.055 495.52 271.069C496.953 271.999 498.851 272.479 500.551 272.334C501.359 272.266 502.076 272.044 502.67 271.457C503.189 270.939 503.578 270.085 503.547 269.338C503.479 267.836 502.228 266.197 500.551 266.342C500.147 266.38 499.751 266.373 499.347 266.327L500.139 266.434C499.644 266.365 499.179 266.243 498.714 266.06L499.43 266.365C498.973 266.174 498.554 265.93 498.165 265.625L498.767 266.09C498.455 265.839 498.173 265.549 497.929 265.237L498.394 265.839C498.18 265.549 498.005 265.244 497.852 264.916L498.157 265.633C497.982 265.214 497.868 264.787 497.799 264.345L497.906 265.138C497.86 264.733 497.852 264.337 497.906 263.941L497.799 264.733C497.86 264.337 497.959 263.956 498.119 263.582L497.814 264.299C497.936 264.024 498.089 263.773 498.264 263.529L497.799 264.131C498.028 263.834 498.295 263.575 498.592 263.338L497.99 263.803C498.295 263.582 498.615 263.399 498.958 263.247L498.241 263.552C498.554 263.43 498.866 263.346 499.194 263.293L498.401 263.399C498.729 263.361 499.057 263.354 499.385 263.392L498.592 263.285C498.714 263.3 498.836 263.323 498.958 263.354C500.482 263.689 502.266 262.896 502.64 261.265C502.983 259.748 502.183 257.949 500.551 257.583L500.536 257.59Z" fill="#562425"/>
<path d="M427.503 81.6471C334.778 93.4635 362.947 239.126 460.764 210.98C501.687 199.194 521.272 169.104 507.71 126.45C495.893 89.2249 465.018 74.8012 427.503 81.6547" fill="#F5861A"/>
<path d="M407.247 128.737C409.336 128.737 411.539 127.83 413.018 126.343C414.497 124.857 415.503 122.608 415.412 120.572C415.214 116.151 411.829 112.408 407.247 112.408C405.158 112.408 402.955 113.315 401.476 114.801C399.997 116.288 398.991 118.537 399.082 120.572C399.281 124.994 402.665 128.737 407.247 128.737Z" fill="#F4B400"/>
<path d="M390.262 146.706C393.822 146.706 397.23 143.58 397.062 139.906C396.895 136.231 394.074 133.105 390.262 133.105C386.702 133.105 383.294 136.231 383.462 139.906C383.63 143.58 386.45 146.706 390.262 146.706Z" fill="#F4B400"/>
<path d="M414.2 150.319C417.76 150.319 421.168 147.194 421 143.519C420.833 139.845 418.012 136.719 414.2 136.719C410.64 136.719 407.232 139.845 407.4 143.519C407.568 147.194 410.388 150.319 414.2 150.319Z" fill="#F4B400"/>
<path d="M487.134 122.189C488.644 124.285 489.955 126.511 491.045 128.852C491.175 129.126 491.297 129.401 491.419 129.683C491.556 129.995 491.441 129.728 491.419 129.667C491.48 129.805 491.533 129.949 491.594 130.087C491.838 130.697 492.074 131.314 492.288 131.932C492.707 133.121 493.073 134.333 493.385 135.56C493.698 136.788 493.957 138.023 494.155 139.273C494.186 139.471 494.216 139.669 494.247 139.875C494.247 139.883 494.316 140.378 494.277 140.081C494.239 139.784 494.3 140.272 494.3 140.287C494.316 140.439 494.338 140.592 494.354 140.737C494.422 141.392 494.483 142.048 494.521 142.704C494.681 145.227 494.62 147.766 494.331 150.274C494.316 150.426 494.293 150.571 494.277 150.723C494.209 151.234 494.338 150.319 494.262 150.83C494.201 151.227 494.14 151.631 494.064 152.027C493.942 152.721 493.797 153.415 493.637 154.108C493.302 155.534 492.89 156.944 492.402 158.332C491.884 159.811 492.989 161.671 494.491 162.014C496.16 162.395 497.616 161.511 498.173 159.925C501.893 149.26 501.177 137.428 496.763 127.091C495.573 124.3 494.072 121.647 492.303 119.185C491.388 117.92 489.658 117.18 488.209 118.11C486.951 118.918 486.158 120.847 487.134 122.204V122.189Z" fill="#562425"/>
<path d="M479.381 133.838C480.09 134.852 480.7 135.934 481.195 137.07C480.906 136.392 481.302 137.383 481.348 137.505C481.455 137.817 481.561 138.13 481.653 138.45C481.828 139.044 481.973 139.647 482.087 140.257C482.141 140.539 482.202 140.828 482.232 141.11C482.156 140.325 482.247 141.408 482.263 141.545C482.308 142.163 482.324 142.78 482.316 143.398C482.308 144.015 482.278 144.64 482.179 145.25C482.308 144.465 482.118 145.54 482.087 145.677C482.026 146.005 481.95 146.325 481.866 146.645C481.485 148.162 482.354 149.961 483.955 150.327C485.556 150.693 487.233 149.862 487.637 148.238C489.109 142.338 488.041 135.827 484.55 130.819C483.658 129.538 481.889 128.821 480.456 129.744C479.183 130.567 478.428 132.465 479.381 133.838Z" fill="#562425"/>
<path d="M452.843 94.2638C437.924 93.3794 437.848 109.549 454.071 108.809C460.856 108.497 464.858 105.745 464.05 100.889C463.341 96.6499 458.942 94.401 452.843 94.2638Z" fill="#562425"/>
<path d="M454.528 97.7173C457.486 84.8488 452.577 72.0489 443.947 62.794C435.317 53.5467 423.295 47.4403 410.823 42.7061C412.21 56.497 413.849 70.9435 422.525 81.5936C430.141 90.94 442.971 96.3679 456.472 95.9562" fill="#4BAC76"/>
<path d="M456.678 101.62C456.617 102.078 456.739 101.171 456.762 101.049C456.808 100.744 456.853 100.439 456.907 100.134C457.036 99.3792 457.174 98.6168 457.326 97.8697C457.6 96.5127 457.928 95.171 458.294 93.8369C458.66 92.5027 459.072 91.1839 459.522 89.8726C459.758 89.1941 460.002 88.5233 460.261 87.8524C460.368 87.5627 460.482 87.2807 460.596 86.991C460.657 86.8461 460.711 86.7089 460.772 86.564C460.825 86.4344 461.046 85.9237 460.886 86.2896C461.999 83.6976 463.28 81.1818 464.721 78.7652C465.43 77.5759 466.177 76.4095 466.962 75.2736C467.336 74.7247 467.724 74.1835 468.121 73.6422C468.334 73.3525 468.548 73.0628 468.761 72.7807C468.761 72.7884 469.066 72.3919 468.906 72.5978C468.776 72.7655 469.249 72.1709 469.242 72.1785C471.224 69.6932 473.404 67.3757 475.737 65.2182C476.888 64.1509 476.895 62.0468 475.737 60.9872C474.502 59.8513 472.733 59.8513 471.506 60.9872C462.655 69.152 456.129 79.8096 452.775 91.3668C451.799 94.7364 451.143 98.1594 450.694 101.636C450.488 103.191 452.218 104.693 453.69 104.632C455.481 104.548 456.464 103.313 456.686 101.636L456.678 101.62Z" fill="#562425"/>
<path d="M458.012 96.0553C454.147 87.3416 447.796 79.9087 439.975 74.5037C438.686 73.6117 436.598 74.2216 435.881 75.5786C435.073 77.1033 435.576 78.7195 436.956 79.6724C437.878 80.3128 438.725 80.9379 439.296 81.3953C440.127 82.0662 440.943 82.7675 441.728 83.4918C443.344 84.9784 444.854 86.5717 446.257 88.2641C446.417 88.4623 446.577 88.6605 446.737 88.8587C446.821 88.9578 447.171 89.4 446.927 89.0951C447.27 89.5372 447.606 89.9946 447.926 90.4444C448.551 91.3135 449.146 92.2054 449.71 93.1203C450.892 95.0338 451.936 97.0235 452.843 99.0742C453.484 100.507 455.687 100.957 456.937 100.149C458.424 99.1886 458.69 97.5876 458.012 96.0553Z" fill="#562425"/>
<path d="M373.803 232.958C332.247 149.961 484.748 147.446 449.604 234.041Z" fill="#F22248"/>
<path d="M449.108 236.984C438.466 208.205 447.82 184.793 481.775 180.341C512.704 176.285 538.166 201.969 517.232 238.645" fill="#F22248"/>
<path d="M408.68 181.012C412.797 187.583 421.892 189.954 428.692 186.188C430.064 185.426 430.628 183.428 429.767 182.094C428.905 180.76 427.137 180.211 425.673 181.019C425.414 181.164 425.033 181.446 424.735 181.492C425.345 181.408 425.002 181.385 424.766 181.462C424.598 181.515 424.438 181.576 424.27 181.629C423.935 181.728 423.599 181.82 423.256 181.888C423.089 181.927 422.913 181.942 422.746 181.98C422.38 182.064 423.386 181.934 422.814 181.965C422.113 182.01 421.419 182.041 420.718 181.988C420.542 181.972 420.367 181.949 420.192 181.942C419.788 181.919 420.939 182.087 420.26 181.942C419.917 181.873 419.574 181.805 419.231 181.721C418.888 181.637 418.553 181.53 418.225 181.416C418.095 181.37 417.958 181.317 417.828 181.271C417.15 181.035 418.408 181.561 417.767 181.248C417.173 180.951 416.586 180.646 416.029 180.272C415.907 180.188 415.686 180.097 415.602 179.967C415.915 180.417 415.839 180.166 415.633 179.983C415.374 179.754 415.114 179.525 414.863 179.274C414.611 179.022 414.405 178.755 414.169 178.496C413.933 178.237 414.489 178.984 414.192 178.519C414.078 178.344 413.956 178.168 413.849 177.993C413.018 176.666 411.143 176.026 409.755 176.918C408.368 177.81 407.796 179.594 408.68 181.012Z" fill="#562425"/>
<path d="M468.311 196.297C475.927 197.822 483.695 195.817 489.664 190.861C490.877 189.855 490.778 187.652 489.664 186.63C488.376 185.449 486.722 185.563 485.433 186.63C485.281 186.76 485.128 186.882 484.976 187.004C485.197 186.836 485.167 186.859 484.885 187.072C484.564 187.294 484.244 187.522 483.916 187.736C483.261 188.163 482.582 188.551 481.881 188.902C481.53 189.077 481.18 189.245 480.821 189.398C481.302 189.192 480.272 189.603 480.173 189.642C479.479 189.893 478.778 190.107 478.069 190.282C477.36 190.457 476.636 190.61 475.912 190.716C476.499 190.625 475.355 190.77 475.248 190.777C474.86 190.808 474.471 190.831 474.074 190.846C473.289 190.869 472.512 190.846 471.726 190.793C471.62 190.785 470.476 190.648 471.063 190.732C470.674 190.678 470.293 190.602 469.904 190.526C468.372 190.221 466.603 190.96 466.222 192.615C465.887 194.101 466.672 195.969 468.311 196.297Z" fill="#562425"/>
<path d="M608.112 216.553C491.586 231.083 368.177 178.931 253.131 209.57C263.773 273.012 242.58 341.594 238.455 404.259C231.686 541.169 410.449 530.603 512.696 519.282C683.554 497.342 570.101 379.284 608.112 216.553Z" fill="white"/>
<path d="M390.681 227.149C390.094 300.579 361.148 441.904 479.381 413.041C514.944 406.165 524.863 374.153 523.452 341.136C522.111 309.735 515.326 270.009 511.262 239.888L498.066 237.975C493.812 276.74 517.346 356.543 478.451 377.607C457.745 385.848 429.637 383.225 419.094 356.391C403.984 317.93 410.708 271.892 406.63 230.847C406.63 230.847 395.896 228.522 390.674 227.149" fill="#F4D4B6"/>
<path d="M295.975 229.413C314.134 228.278 332.339 228.209 350.514 228.842C368.81 229.474 387.076 230.801 405.311 232.402C423.501 233.995 441.66 235.855 459.842 237.571C478.001 239.286 496.176 240.864 514.388 241.886C532.601 242.907 550.958 243.38 569.247 242.869C571.511 242.808 573.776 242.724 576.04 242.633C579.874 242.473 579.897 236.488 576.04 236.648C557.85 237.395 539.63 237.136 521.448 236.267C503.144 235.39 484.87 233.896 466.627 232.211C448.445 230.534 430.278 228.666 412.096 227.012C393.952 225.365 375.778 223.932 357.573 223.124C339.315 222.316 321.018 222.148 302.76 223.04C300.496 223.147 298.239 223.277 295.975 223.421C294.359 223.521 292.979 224.725 292.979 226.417C292.979 227.957 294.351 229.513 295.975 229.413Z" fill="#562425"/>
<path d="M310.262 248.777C322.81 247.047 336.159 246.963 348.958 248.442C352.442 248.846 356.025 249.41 359.631 250.104C361.164 250.394 362.932 249.677 363.314 248.015C363.649 246.536 362.864 244.645 361.225 244.333C347.815 241.764 334.093 240.857 320.462 241.771C316.52 242.038 312.594 242.473 308.676 243.006C307.121 243.22 306.137 245.293 306.587 246.689C307.144 248.396 308.6 249.006 310.269 248.777H310.262Z" fill="#562425"/>
<path d="M578.746 438.808C577.405 445.006 575.4 449.969 572.251 455.313C569.103 460.657 565.687 464.911 561.128 469.318C560.054 470.354 558.956 471.353 557.82 472.321C557.256 472.809 556.684 473.282 556.105 473.747C555.342 474.364 555.205 474.463 554.595 474.921C551.965 476.895 549.198 478.702 546.346 480.349C540.347 483.81 534.553 486.28 528.027 488.399C520.594 490.808 512.933 492.447 505.202 493.545C503.647 493.766 502.656 495.824 503.114 497.227C503.662 498.935 505.126 499.552 506.796 499.316C520.922 497.311 534.904 493.423 547.482 486.577C559.032 480.295 569.186 471.353 576.261 460.223C580.111 454.162 582.993 447.415 584.517 440.394C584.845 438.869 584.06 437.085 582.428 436.712C580.919 436.369 579.105 437.169 578.746 438.801V438.808Z" fill="#562425"/>
<path d="M553.878 447.072C553.047 448.49 552.163 449.87 551.218 451.204C550.997 451.517 550.768 451.829 550.539 452.142C550.425 452.294 550.311 452.447 550.189 452.607C549.632 453.347 550.379 452.371 550.036 452.805C549.525 453.446 549.007 454.078 548.473 454.703C546.331 457.189 543.975 459.483 541.444 461.565C541.109 461.839 540.774 462.114 540.431 462.38C540.049 462.685 540.743 462.144 540.347 462.441C540.194 462.556 540.042 462.678 539.882 462.792C539.226 463.28 538.555 463.76 537.877 464.225C536.52 465.148 535.125 466.017 533.699 466.825C532.273 467.633 530.726 468.426 529.186 469.127C528.835 469.287 528.484 469.44 528.126 469.6C527.676 469.798 528.5 469.447 528.042 469.638C527.867 469.714 527.684 469.783 527.509 469.859C526.701 470.187 525.892 470.492 525.069 470.774C523.339 471.384 521.585 471.902 519.801 472.337C518.909 472.55 518.017 472.748 517.118 472.924C516.645 473.015 516.173 473.099 515.692 473.175C515.502 473.206 515.311 473.236 515.12 473.267C514.998 473.282 514.168 473.404 514.77 473.32C513.222 473.526 511.698 474.547 511.774 476.316C511.835 477.757 513.108 479.533 514.77 479.312C528.942 477.429 542.237 470.56 551.835 459.918C554.557 456.907 556.989 453.606 559.039 450.106C559.832 448.757 559.398 446.767 557.965 446.013C556.531 445.258 554.717 445.639 553.871 447.088L553.878 447.072Z" fill="#562425"/>
<path d="M281.871 413.704C241.68 399.791 199.667 412.919 206.856 450.144C210.714 480.28 207.74 504.584 207.26 531.769C208.48 554.144 243.807 559.816 268.828 546.216C269.453 558.23 302.676 559.343 311.618 545.27C322.345 552.848 345.68 552.955 359.982 545.065C380.786 533.584 372.858 508.014 368.68 489.977C364.701 470.674 364.769 450.899 363.58 431.261C361.278 393.151 314.759 391.131 281.864 413.704H281.871Z" fill="#F5861A"/>
<path d="M269.094 418.499C260.502 423.332 254.533 431.307 250.912 440.348C247.352 449.229 246.109 459.102 246.498 468.624C246.696 473.533 247.283 478.488 248.526 483.246C249.967 488.788 251.545 494.292 253.283 499.75C255.517 506.756 258.223 513.633 260.19 520.723C261.112 524.054 261.821 527.447 262.332 530.87C262.37 531.114 262.401 531.35 262.439 531.594C262.469 531.784 262.561 532.577 262.462 531.746C262.523 532.257 262.591 532.768 262.652 533.279C262.782 534.369 262.889 535.459 262.988 536.549C263.216 539.05 263.377 541.558 263.498 544.073C263.567 545.522 263.62 546.97 263.674 548.419C263.727 549.982 265.016 551.484 266.67 551.415C268.324 551.346 269.719 550.096 269.666 548.419C269.384 539.606 268.789 530.709 266.738 522.11C265.145 515.432 262.66 509.005 260.487 502.51C258.917 497.814 257.453 493.08 256.111 488.315C255.257 485.296 254.312 482.254 253.71 479.175C253.504 478.13 253.321 477.078 253.169 476.018C253.131 475.744 253.092 475.462 253.047 475.188C253.123 475.729 253.062 475.294 253.031 475.027C252.955 474.425 252.887 473.815 252.826 473.213C252.368 468.639 252.315 464.027 252.688 459.445C252.734 458.896 252.78 458.347 252.841 457.798C252.871 457.501 252.902 457.211 252.94 456.914C252.955 456.784 252.97 456.662 252.986 456.533C252.986 456.533 253.085 455.748 253.031 456.174C252.986 456.525 253.085 455.809 253.1 455.694C253.146 455.405 253.184 455.107 253.237 454.817C253.329 454.23 253.428 453.651 253.542 453.064C253.977 450.747 254.533 448.452 255.227 446.203C255.555 445.128 255.921 444.061 256.317 443.009C256.508 442.506 256.706 442.002 256.912 441.507C257.125 440.981 256.942 441.438 256.897 441.537C256.942 441.423 256.996 441.309 257.041 441.194C257.179 440.897 257.308 440.592 257.445 440.295C258.391 438.259 259.473 436.285 260.708 434.409C260.998 433.967 261.295 433.533 261.6 433.106C261.768 432.877 261.936 432.648 262.103 432.42C262.134 432.374 262.378 432.054 262.164 432.336C261.92 432.664 262.332 432.13 262.378 432.069C263.056 431.215 263.773 430.399 264.528 429.607C265.282 428.814 266.129 428.006 266.99 427.259C267.394 426.915 267.798 426.58 268.217 426.245C267.76 426.611 268.324 426.161 268.492 426.046C268.721 425.879 268.957 425.711 269.193 425.543C270.146 424.872 271.137 424.263 272.151 423.691C273.516 422.921 274.088 420.939 273.226 419.597C272.365 418.255 270.596 417.699 269.132 418.522L269.094 418.499Z" fill="#562425"/>
<path d="M294.816 419.871C295.746 420.855 296.653 421.861 297.53 422.89C297.942 423.378 298.353 423.866 298.75 424.362C298.948 424.606 299.146 424.85 299.337 425.101C299.436 425.223 299.535 425.345 299.626 425.475C299.436 425.231 299.672 425.536 299.733 425.612C301.266 427.64 302.699 429.744 304.01 431.924C305.321 434.104 306.434 436.209 307.479 438.435C307.723 438.961 307.967 439.494 308.195 440.028C308.249 440.15 308.531 440.805 308.348 440.379C308.5 440.737 308.645 441.095 308.79 441.454C309.24 442.567 309.659 443.695 310.048 444.831C311.618 449.374 312.754 454.055 313.547 458.789C313.646 459.361 313.73 459.933 313.821 460.512C313.867 460.802 313.905 461.092 313.943 461.374C313.966 461.519 313.982 461.663 314.004 461.808C313.959 461.488 313.981 461.663 314.012 461.877C314.164 463.089 314.302 464.301 314.424 465.521C314.66 467.983 314.828 470.453 314.934 472.923C315.125 477.467 315.217 482.049 314.912 486.592C314.851 487.538 314.767 488.483 314.668 489.428C314.622 489.855 314.576 490.274 314.523 490.701C314.5 490.907 314.469 491.121 314.447 491.326C314.355 492.035 314.5 490.945 314.431 491.464C314.195 493.141 313.913 494.81 313.593 496.472C312.312 503.143 310.513 509.707 309.423 516.423C307.913 525.693 307.631 535.04 308.355 544.401C308.47 545.88 308.607 547.352 308.759 548.831C308.92 550.386 310.017 551.903 311.755 551.827C313.234 551.758 314.919 550.5 314.751 548.831C314.187 543.418 313.875 537.975 313.959 532.524C313.997 530.244 314.096 527.965 314.279 525.686C314.363 524.618 314.469 523.551 314.584 522.484C314.637 522.011 314.69 521.538 314.751 521.066C314.782 520.829 314.812 520.601 314.843 520.372C314.759 520.997 314.843 520.403 314.881 520.136C315.865 513.214 317.671 506.467 319.066 499.621C319.798 496.038 320.378 492.424 320.728 488.788C321.148 484.412 321.132 480.013 321.018 475.63C320.759 465.597 319.638 455.466 316.68 445.845C313.608 435.843 308.554 426.641 301.769 418.674C300.892 417.645 299.985 416.639 299.055 415.656C297.98 414.512 295.891 414.489 294.824 415.656C293.703 416.883 293.672 418.667 294.824 419.887L294.816 419.871Z" fill="#562425"/>
<path d="M320.636 435.591C322.26 437.901 323.732 440.318 325.012 442.833C326.362 445.486 327.208 447.514 328.153 450.365C329.045 453.041 329.747 455.786 330.25 458.561C330.73 461.191 330.982 463.539 331.081 466.489C331.134 468.082 331.126 469.683 331.05 471.277C331.012 472.077 330.959 472.87 330.89 473.67C330.852 474.097 330.806 474.517 330.76 474.944C330.745 475.104 330.722 475.264 330.707 475.416C330.7 475.492 330.608 476.163 330.669 475.729C330.456 477.269 331.043 479.022 332.758 479.411C334.168 479.731 336.211 478.976 336.44 477.322C338.14 464.987 336.234 452.5 330.89 441.24C329.449 438.206 327.749 435.309 325.813 432.564C324.913 431.291 323.16 430.567 321.719 431.49C320.454 432.305 319.684 434.219 320.644 435.583L320.636 435.591Z" fill="#562425"/>
<path d="M240.773 507.527C244.386 517.719 246.963 528.461 247.84 539.012C247.969 540.567 249.12 542.084 250.836 542.008C252.345 541.939 253.969 540.689 253.832 539.012C252.886 527.721 250.333 516.606 246.544 505.941C246.025 504.47 244.478 503.326 242.862 503.852C241.413 504.325 240.209 505.956 240.773 507.534V507.527Z" fill="#562425"/>
<path d="M273.6 407.46C269.262 395.362 264.924 383.263 260.579 371.157C269.071 368.87 277.564 366.583 286.049 364.289C288.046 379.985 287.642 391.893 289.014 404.304C296.455 405.273 304.101 402.475 311.237 404.907C321.879 409.336 315.178 421.29 306.259 422.845C292.918 427.579 278.265 428.539 264.421 425.589C244.546 421.267 249.509 406.538 273.592 407.468" fill="#388159"/>
<path d="M206.445 465.209C105.975 461.229 94.0972 566.616 189.124 574.087C213.413 575.993 247.444 573.607 266.144 558.642C307.822 525.289 272.655 457.577 206.445 465.209Z" fill="#F22248"/>
<path d="M198.775 462.19C195.215 452.523 193.706 440.699 192.326 430.491C200.498 429.203 208.671 427.914 216.851 426.626C214.93 437.413 213.009 448.208 211.087 458.995C228.141 454.932 247.299 461.725 257.98 475.63C247.375 479.388 235.3 478.794 225.122 473.998C228.926 484.618 229.109 496.488 225.648 507.222C225.374 508.083 225.031 508.983 224.314 509.524C223.369 510.225 222.05 510.103 220.906 509.829C214.739 508.342 209.814 503.494 206.757 497.936C203.7 492.379 202.237 486.112 200.811 479.93C194.72 491.38 182.568 499.369 169.638 500.437C171.468 491.35 176.865 483.025 184.42 477.658C172.368 480.959 158.683 477.467 149.695 468.784C165.24 461.412 182.614 456.327 198.791 462.197" fill="#388159"/>
<path d="M139.426 505.125C135.584 510.172 134.837 517.125 135.47 523.261C136.11 529.429 138.085 535.413 141.386 540.674C143.253 543.647 145.517 546.399 148.102 548.77C149.253 549.829 151.205 549.997 152.333 548.77C153.393 547.619 153.568 545.667 152.333 544.539C151.319 543.609 150.351 542.625 149.451 541.588C149.253 541.36 149.055 541.123 148.857 540.887C148.727 540.727 148.597 540.574 148.468 540.414C148.422 540.361 148.254 540.148 148.468 540.414C148.033 539.85 147.622 539.271 147.218 538.676C146.448 537.533 145.739 536.351 145.098 535.131C144.793 534.544 144.496 533.95 144.221 533.347C144.092 533.073 143.97 532.791 143.848 532.509C143.871 532.57 143.985 532.837 143.848 532.516C143.756 532.28 143.657 532.044 143.566 531.807C142.598 529.284 141.919 526.654 141.515 523.978C141.462 523.627 141.515 523.948 141.515 524.016C141.492 523.81 141.469 523.612 141.447 523.406C141.416 523.101 141.386 522.796 141.363 522.492C141.302 521.783 141.264 521.066 141.248 520.357C141.218 518.939 141.279 517.529 141.431 516.118C141.469 515.768 141.431 516.05 141.431 516.118C141.462 515.905 141.492 515.699 141.53 515.486C141.599 515.066 141.683 514.655 141.782 514.235C141.957 513.465 142.171 512.703 142.438 511.956C142.483 511.826 142.796 511.033 142.659 511.354C142.826 510.972 143.009 510.599 143.208 510.225C143.604 509.486 144.069 508.784 144.572 508.121C145.525 506.871 144.808 504.721 143.497 504.027C141.919 503.189 140.417 503.768 139.403 505.102L139.426 505.125Z" fill="#562425"/>
<path d="M149.596 514.472C147.332 522.392 149.359 531.015 154.681 537.251C155.702 538.448 157.875 538.379 158.912 537.251C160.078 535.978 160.002 534.293 158.912 533.02C158.782 532.867 158.66 532.722 158.53 532.57C158.431 532.448 158.264 532.227 158.454 532.478C158.187 532.128 157.936 531.762 157.699 531.396C157.25 530.694 156.838 529.97 156.472 529.223C156.388 529.048 156.304 528.872 156.221 528.689C156.144 528.529 156.045 528.301 156.175 528.598C156.007 528.194 155.855 527.775 155.71 527.355C155.443 526.563 155.222 525.762 155.039 524.946C154.955 524.565 154.886 524.176 154.818 523.788C154.78 523.582 154.764 523.383 154.803 523.711C154.78 523.513 154.757 523.323 154.742 523.124C154.665 522.293 154.635 521.462 154.65 520.624C154.658 520.182 154.681 519.739 154.719 519.305C154.734 519.107 154.757 518.916 154.78 518.718C154.803 518.504 154.841 518.322 154.787 518.642C154.932 517.773 155.123 516.911 155.367 516.057C155.794 514.555 154.841 512.733 153.278 512.375C151.715 512.017 150.061 512.855 149.596 514.464V514.472Z" fill="#562425"/>
</svg>
