<svg width="460" height="386" viewBox="0 0 460 386" fill="none" xmlns="http://www.w3.org/2000/svg">
<g clip-path="url(#clip0_16_350)">
<path opacity="0.3" d="M220.22 385.22C322.63 385.22 405.65 365.328 405.65 340.79C405.65 316.252 322.63 296.36 220.22 296.36C117.81 296.36 34.79 316.252 34.79 340.79C34.79 365.328 117.81 385.22 220.22 385.22Z" fill="#DB864C"/>
<path d="M235.43 34.16C232.05 30.95 224.39 41.47 218.06 51.22C220.77 38.07 234.27 6.97004 226.51 4.43004C219.16 3.26004 216.06 32.43 213.36 47.88C213.41 36.01 213.35 8.45004 208 8.76004C201.36 7.06004 202.43 37.08 205.04 51.16C203.91 48.19 197.77 29.34 192.8 32.15C187.75 35.01 205.28 65.31 202.27 86.99L210.1 87.82C212.2 69.67 238.48 60.7 235.07 54.66C232.22 49.96 225.58 56.99 219.17 60.71C224.98 55.05 241.68 38.13 235.42 34.15L235.43 34.16ZM209.7 59.05C209.7 59.05 209.63 59.02 209.62 58.98C209.62 58.94 209.65 58.9 209.69 58.9C209.73 58.9 209.76 58.93 209.77 58.97C209.77 59.01 209.74 59.05 209.7 59.05Z" fill="#388159"/>
<path d="M212.63 75.4301C187.73 67.2501 183.22 86.6901 178.61 103.69C172.53 126.1 164.22 176.39 170.36 202.48C171.21 206.1 176 206.88 177.93 203.71C196.63 173.02 241.66 89.2901 212.63 75.4201" fill="#F5861A"/>
<path d="M184.45 88.4401C192.26 94.2801 201.75 97.6001 211.47 98.0701C214.2 98.2001 214.2 93.9501 211.47 93.8201C202.45 93.3801 193.81 90.1701 186.59 84.7701C185.67 84.0801 184.22 84.6201 183.68 85.5301C183.05 86.6201 183.52 87.7501 184.44 88.4401H184.45Z" fill="#562425"/>
<path d="M180.52 97.9101C184.24 100.14 188.34 101.76 192.59 102.63C193.68 102.85 194.94 102.32 195.2 101.15C195.44 100.09 194.88 98.7801 193.72 98.5401C191.72 98.1301 189.75 97.5601 187.84 96.8201C187.61 96.7301 187.39 96.6401 187.16 96.5501C186.93 96.4501 186.9 96.4401 187.09 96.5201C186.96 96.4701 186.84 96.4101 186.71 96.3501C186.27 96.1501 185.83 95.9501 185.39 95.7301C184.46 95.2701 183.55 94.7701 182.66 94.2301C181.71 93.6601 180.28 93.9901 179.75 94.9901C179.22 95.9901 179.49 97.2901 180.51 97.9001L180.52 97.9101Z" fill="#562425"/>
<path d="M213.76 125.33C205.19 126.51 196.3 124.87 188.66 120.85C186.24 119.58 184.09 123.24 186.52 124.52C195.26 129.12 205.13 130.77 214.9 129.43C216.04 129.27 216.66 127.82 216.38 126.82C216.04 125.59 214.91 125.18 213.77 125.34L213.76 125.33Z" fill="#562425"/>
<path d="M210.17 134.86C205.85 135.7 201.06 135.21 197 133.41C195.95 132.95 194.72 133.1 194.09 134.17C193.56 135.07 193.8 136.61 194.85 137.08C200.06 139.38 205.7 140.05 211.3 138.96C212.43 138.74 213.07 137.39 212.78 136.35C212.46 135.17 211.3 134.65 210.17 134.87V134.86Z" fill="#562425"/>
<path d="M170.49 149.82C176.78 153.33 183.66 155.76 190.78 156.89C191.91 157.07 193.07 156.6 193.39 155.41C193.67 154.4 193.05 152.98 191.91 152.8C185.14 151.72 178.62 149.5 172.63 146.15C170.24 144.82 168.09 148.48 170.49 149.82Z" fill="#562425"/>
<path d="M168.97 160.12C172.58 162.45 176.91 163.64 181.2 163.5C182.31 163.46 183.38 162.55 183.32 161.38C183.26 160.21 182.39 159.22 181.2 159.26C180.23 159.29 179.28 159.24 178.31 159.15C178.06 159.12 178.05 159.12 178.31 159.15C178.18 159.13 178.06 159.11 177.93 159.09C177.74 159.06 177.55 159.02 177.36 158.99C176.89 158.9 176.42 158.78 175.95 158.66C175.48 158.54 175.03 158.39 174.57 158.22C174.39 158.15 174.21 158.08 174.03 158.02C173.8 157.93 173.79 157.92 174 158.02C173.88 157.97 173.76 157.92 173.65 157.86C172.77 157.46 171.93 157 171.12 156.47C170.18 155.87 168.73 156.25 168.21 157.23C167.65 158.29 167.97 159.49 168.97 160.14V160.12Z" fill="#562425"/>
<path d="M178.13 179.01C182.01 181.21 186.27 182.51 190.71 182.94C191.82 183.05 192.88 181.89 192.83 180.82C192.77 179.58 191.89 178.81 190.71 178.7C190.44 178.67 190.16 178.64 189.89 178.61C190.31 178.66 189.72 178.59 189.64 178.57C189.16 178.5 188.69 178.41 188.22 178.32C187.24 178.12 186.28 177.87 185.33 177.57C184.87 177.42 184.42 177.27 183.97 177.1C183.74 177.02 183.52 176.93 183.3 176.84C183.07 176.74 183.05 176.74 183.24 176.82C183.15 176.78 183.05 176.74 182.96 176.7C182.05 176.3 181.16 175.85 180.29 175.36C179.32 174.81 177.92 175.1 177.38 176.12C176.84 177.14 177.11 178.44 178.14 179.03L178.13 179.01Z" fill="#562425"/>
<path d="M179.04 188.13C180.81 189.03 182.69 189.7 184.65 190.01C185.23 190.1 185.76 190.11 186.29 189.8C186.73 189.54 187.15 189.04 187.27 188.53C187.39 187.99 187.37 187.38 187.06 186.89C186.78 186.45 186.32 186 185.79 185.91C184.44 185.7 183.13 185.32 181.86 184.8L182.37 185.01C181.97 184.84 181.58 184.66 181.19 184.46C180.68 184.2 180.12 184.09 179.55 184.25C179.06 184.39 178.52 184.77 178.28 185.23C178.02 185.72 177.89 186.32 178.07 186.87C178.24 187.38 178.55 187.89 179.05 188.14L179.04 188.13Z" fill="#562425"/>
<path d="M176.51 26.25C172.39 24.06 167.84 36.25 164.35 47.34C163.43 33.95 168.11 0.36 159.95 0C152.56 0.84 157.39 29.78 158.92 45.38C155.79 33.93 148.34 7.4 143.27 9.13C136.42 9.27 145.5 37.9 151.78 50.77C149.89 48.22 138.93 31.7 134.9 35.74C130.8 39.85 155.81 64.34 158.73 86.03L166.5 84.73C163.65 66.68 186.57 50.99 181.67 46.09C177.66 42.32 173.15 50.88 167.97 56.18C172.05 49.17 183.61 28.4 176.51 26.24V26.25ZM158.39 57.13C158.39 57.13 158.31 57.13 158.29 57.09C158.27 57.05 158.29 57.01 158.33 56.99C158.37 56.97 158.41 56.99 158.43 57.03C158.45 57.07 158.43 57.11 158.39 57.13Z" fill="#388159"/>
<path d="M165.61 72.11C139.43 70.9 140.29 90.84 140.41 108.46C140.56 131.68 146.04 182.36 158.94 205.85C160.73 209.11 165.55 208.58 166.56 205C176.35 170.42 197.28 77.68 165.6 72.11" fill="#F5861A"/>
<path d="M141.93 92.2C151.03 95.73 161.06 96.39 170.57 94.24C173.24 93.64 172.11 89.54 169.44 90.14C160.64 92.13 151.46 91.36 143.06 88.1C141.99 87.68 140.73 88.56 140.45 89.58C140.12 90.78 140.86 91.78 141.93 92.19V92.2Z" fill="#562425"/>
<path d="M140.67 102.38C144.86 103.53 149.25 104 153.58 103.7C154.69 103.62 155.76 102.78 155.7 101.58C155.65 100.49 154.76 99.3699 153.58 99.4599C149.4 99.7399 145.73 99.3799 141.8 98.2899C140.73 97.9899 139.44 98.6599 139.19 99.7699C138.94 100.88 139.53 102.07 140.67 102.38Z" fill="#562425"/>
<path d="M180.09 119.87C172.15 123.3 163.15 124.13 154.71 122.3C152.04 121.72 150.9 125.82 153.58 126.4C163.23 128.48 173.18 127.45 182.24 123.54C183.29 123.08 183.53 121.54 183 120.63C182.36 119.54 181.15 119.41 180.09 119.87Z" fill="#562425"/>
<path d="M179.19 130.02C175.21 132.01 170.43 132.8 166.11 132.17C164.98 132 163.83 132.45 163.5 133.65C163.23 134.65 163.84 136.1 164.98 136.26C170.61 137.08 176.23 136.23 181.33 133.68C182.36 133.17 182.64 131.72 182.09 130.77C181.48 129.73 180.21 129.49 179.18 130.01L179.19 130.02Z" fill="#562425"/>
<path d="M144.93 155.08C151.95 156.78 159.22 157.27 166.39 156.46C167.53 156.33 168.51 155.58 168.51 154.34C168.51 153.29 167.53 152.09 166.39 152.22C159.58 152.99 152.72 152.6 146.06 150.99C143.4 150.35 142.27 154.44 144.93 155.09V155.08Z" fill="#562425"/>
<path d="M146.22 165.4C150.33 166.68 154.82 166.67 158.93 165.38C159.99 165.05 160.78 163.89 160.41 162.77C160.04 161.65 158.93 160.93 157.8 161.29C156.86 161.58 155.91 161.8 154.94 161.96C154.48 162.04 155.18 161.95 154.67 161.99C154.46 162.01 154.25 162.03 154.04 162.05C153.55 162.09 153.06 162.11 152.57 162.11C152.11 162.11 151.66 162.09 151.21 162.06C150.97 162.04 150.72 162.02 150.48 162C149.8 161.94 150.88 162.07 150.21 161.97C149.24 161.82 148.29 161.6 147.35 161.3C146.29 160.97 144.99 161.69 144.74 162.78C144.48 163.93 145.09 165.04 146.22 165.39V165.4Z" fill="#562425"/>
<path d="M160.11 181.15C164.45 182.23 168.9 182.35 173.3 181.58C174.4 181.39 175.11 179.99 174.78 178.97C174.4 177.79 173.34 177.28 172.17 177.49C171.91 177.54 171.64 177.58 171.38 177.62C171.23 177.64 171.23 177.64 171.38 177.62C171.27 177.63 171.15 177.65 171.04 177.66C170.55 177.72 170.05 177.76 169.56 177.79C168.61 177.85 167.65 177.87 166.69 177.83C166.19 177.81 165.7 177.78 165.2 177.74C164.97 177.72 164.74 177.7 164.52 177.67C164.46 177.67 163.84 177.58 164.17 177.63C163.19 177.49 162.21 177.29 161.25 177.05C160.17 176.78 158.9 177.4 158.64 178.53C158.38 179.66 158.97 180.86 160.12 181.14L160.11 181.15Z" fill="#562425"/>
<path d="M163.44 189.69C165.39 190.09 167.39 190.23 169.37 190C169.95 189.93 170.44 189.81 170.87 189.38C171.24 189.01 171.52 188.41 171.49 187.88C171.46 187.35 171.28 186.76 170.87 186.38C170.48 186.02 169.92 185.7 169.37 185.76C167.96 185.92 166.54 185.91 165.13 185.72L165.69 185.8C165.31 185.75 164.94 185.68 164.57 185.61C164.01 185.5 163.44 185.53 162.93 185.82C162.49 186.08 162.07 186.58 161.95 187.09C161.83 187.63 161.85 188.24 162.16 188.73C162.45 189.18 162.89 189.6 163.43 189.71L163.44 189.69Z" fill="#562425"/>
<path d="M55.85 103.09C49.39 91.7199 41.33 79.3999 44.25 66.6599C47.82 51.0299 67.65 43.4899 82.91 48.3999C108.57 57.5399 134.14 98.5899 118.48 123.96C152.86 123.07 176.44 163.72 158.62 193.12C203.69 194.92 224.59 274.08 169.43 275.36C154.35 273.18 144.65 258.7 136.9 245.58C110.11 200.23 82.64 148.43 55.85 103.09Z" fill="#DB864C"/>
<path d="M133.53 134.14C140.99 118.56 130.15 98.3 120.76 102.38C113.27 110.94 112.22 124.84 113.1 135.79C114.82 151.76 130.11 148.72 133.53 134.14Z" fill="#E29E70"/>
<path d="M174.82 205.73C182.28 190.15 171.44 169.89 162.05 173.97C154.56 182.53 153.51 196.43 154.39 207.38C156.11 223.35 171.4 220.31 174.82 205.73Z" fill="#E29E70"/>
<path d="M55.73 62.24C52.47 67.02 51.79 72.97 52.68 78.58C53.64 84.63 56.63 90.1899 59.79 95.3499C61.21 97.6799 64.89 95.5499 63.46 93.2099C58.34 84.8299 53.12 73.6099 59.41 64.3899C60.95 62.1199 57.27 59.9999 55.74 62.2499L55.73 62.24Z" fill="#562425"/>
<path d="M63.79 71.02C61.35 76.74 62.3 83.33 66.39 88.04C67.14 88.91 68.62 88.81 69.39 88.04C70.25 87.18 70.14 85.9 69.39 85.04C69.31 84.95 68.9 84.43 69.04 84.63C68.87 84.4 68.7 84.16 68.55 83.92C68.22 83.4 67.92 82.86 67.67 82.3C67.65 82.27 67.5 81.91 67.56 82.06C67.62 82.21 67.48 81.84 67.47 81.81C67.37 81.54 67.28 81.26 67.19 80.99C67.01 80.4 66.88 79.8 66.77 79.19C66.75 79.07 66.73 78.88 66.75 79.11C66.73 78.97 66.72 78.82 66.71 78.68C66.68 78.39 66.67 78.1 66.66 77.81C66.64 77.23 66.68 76.65 66.72 76.08C66.72 75.96 66.75 75.77 66.72 76C66.74 75.86 66.76 75.71 66.79 75.57C66.85 75.25 66.92 74.93 67 74.62C67.07 74.34 67.15 74.06 67.24 73.79C67.29 73.65 67.33 73.52 67.38 73.38C67.4 73.33 67.57 72.9 67.45 73.18C67.9 72.13 67.77 70.9 66.69 70.27C65.8 69.75 64.24 69.97 63.78 71.03L63.79 71.02Z" fill="#562425"/>
<path d="M122.09 98.5799C111.82 108.45 107.57 123.8 111.24 137.55C111.94 140.19 116.04 139.07 115.34 136.42C112.05 124.1 115.91 110.41 125.1 101.58C127.08 99.6799 124.07 96.6799 122.1 98.5799H122.09Z" fill="#562425"/>
<path d="M163.56 169.53C152.93 177.63 150.49 191.19 150.78 203.82C150.84 206.55 155.09 206.56 155.03 203.82C154.79 192.96 156.42 180.28 165.71 173.2C166.62 172.51 167.1 171.37 166.47 170.29C165.95 169.39 164.48 168.83 163.56 169.53Z" fill="#562425"/>
<path d="M111.44 98.28C106.81 102.68 104.06 108.77 103.7 115.14C103.64 116.29 104.72 117.26 105.82 117.26C107.02 117.26 107.88 116.29 107.94 115.14C108.23 109.98 110.6 104.93 114.43 101.29C115.26 100.5 115.23 99.08 114.43 98.29C113.63 97.5 112.26 97.5 111.43 98.29L111.44 98.28Z" fill="#562425"/>
<path d="M154.78 165.59C149.54 170 146.42 176.62 146.15 183.44C146.1 184.59 147.16 185.56 148.27 185.56C149.46 185.56 150.35 184.59 150.39 183.44C150.61 177.76 153.33 172.33 157.77 168.6C158.65 167.86 158.53 166.36 157.77 165.6C156.9 164.73 155.65 164.86 154.77 165.6L154.78 165.59Z" fill="#562425"/>
<path d="M303.9 43.39L266.4 72.62C256.35 119.75 247.45 175.57 237.53 230.46L304.89 258.48L353.31 246.47C353.31 246.47 374.27 153.89 382.64 97.31C383.84 92.05 382.81 86.61 378.9 82.71L363.09 55.81" fill="white"/>
<path d="M315.07 198.13L366.38 186.41C369.78 170.05 371.13 161.7 374.45 143.84C360.77 145.37 324.66 148.92 324.66 148.92C324.66 148.92 281.38 135.15 255.45 128.87C252.8 143.45 250.18 158.45 247.54 173.61C256.08 177.22 306.23 195.34 315.07 198.12V198.13Z" fill="#4BAC76"/>
<path d="M363.88 57.32C355.09 55.45 323.13 48.43 303.68 43.67L305.15 33.72C324.99 37.7 346.26 42.02 366.09 46.01L363.88 57.32Z" fill="#4BAC76"/>
<path d="M316.77 53.5099C301.81 49.1999 296.51 73.3399 313.33 75.4899C320.37 76.3899 325.35 73.0799 326.09 65.6599C326.74 59.1899 322.97 54.9399 316.78 53.5199" fill="#4BAC76"/>
<path d="M264.56 148.45C269.29 149.9 274.02 151.36 278.76 152.81C286.3 155.13 293.84 157.45 301.39 159.77C303.12 160.3 304.85 160.83 306.58 161.37C308.51 161.96 310.88 160.66 311.33 158.67C311.81 156.58 310.7 154.55 308.63 153.92C303.9 152.47 299.17 151.01 294.43 149.56C286.89 147.24 279.35 144.92 271.8 142.6C270.07 142.07 268.34 141.54 266.61 141C264.68 140.41 262.31 141.71 261.86 143.7C261.38 145.79 262.49 147.82 264.56 148.45Z" fill="white"/>
<path d="M270.21 123.59C274.94 125.04 279.67 126.5 284.41 127.95C291.95 130.27 299.49 132.59 307.04 134.91C308.77 135.44 310.5 135.97 312.23 136.51C316.09 137.7 320.83 135.1 321.73 131.11C322.68 126.93 320.47 122.88 316.33 121.61C311.6 120.16 306.87 118.7 302.13 117.25L279.5 110.29C277.77 109.76 276.04 109.23 274.31 108.69C270.45 107.5 265.71 110.1 264.81 114.09C263.86 118.27 266.07 122.32 270.21 123.59Z" fill="#4BAC76"/>
<path d="M266.22 75.01C284.61 79.16 302.56 85.02 320.75 89.92C325.73 91.26 330.73 92.54 335.76 93.67C338.42 94.27 339.56 90.17 336.89 89.57C318.5 85.42 300.55 79.56 282.36 74.66C277.38 73.32 272.38 72.04 267.35 70.91C264.69 70.31 263.55 74.41 266.22 75.01Z" fill="#562425"/>
<path d="M334.48 91.3499C330.26 112.81 325.83 134.23 321.5 155.67C317.17 177.11 313.01 198.23 309.23 219.6C307.09 231.74 305.08 243.91 303.26 256.11C303.09 257.24 303.54 258.39 304.74 258.72C305.74 259 307.18 258.38 307.35 257.24C310.57 235.61 314.4 214.08 318.51 192.6C322.59 171.28 326.96 150.02 331.28 128.75C333.74 116.66 336.19 104.57 338.56 92.4699C339.08 89.7999 334.99 88.6599 334.46 91.3399L334.48 91.3499Z" fill="#562425"/>
<path d="M338.8 90.6699C341.29 86.1599 344.32 81.9299 347.3 77.7299C350.84 72.7499 354.48 67.8299 358.25 63.0099C359.85 60.9699 361.46 58.9399 363.15 56.9699C364.93 54.9099 361.93 51.8899 360.15 53.9699C356.7 57.9799 353.49 62.2099 350.32 66.4399C346.54 71.4799 342.83 76.5799 339.32 81.8099C337.85 83.9999 336.4 86.2099 335.13 88.5199C333.86 90.8299 337.48 93.0599 338.8 90.6599V90.6699Z" fill="#562425"/>
<path d="M338.09 92.6599C352.92 93.5399 367.78 92.6599 382.6 93.8899C385.33 94.1099 385.31 89.8599 382.6 89.6399C367.78 88.4199 352.92 89.2899 338.09 88.4099C335.36 88.2499 335.37 92.4999 338.09 92.6599Z" fill="#562425"/>
<path d="M347.42 102.57C354.98 103.27 362.56 103.67 370.15 103.75C372.89 103.78 372.89 99.5299 370.15 99.4999C362.56 99.4199 354.98 99.0299 347.42 98.3199C346.28 98.2099 345.3 99.3699 345.3 100.44C345.3 101.68 346.28 102.46 347.42 102.56V102.57Z" fill="#562425"/>
<path d="M303.69 205.11C301.71 215.22 300.08 225.4 298.77 235.62C298.62 236.76 299.85 237.74 300.89 237.74C302.16 237.74 302.87 236.76 303.01 235.62C304.28 225.78 305.88 215.98 307.78 206.24C308.3 203.57 304.21 202.42 303.68 205.11H303.69Z" fill="#562425"/>
<path d="M268.8 83.32C267.95 86.95 267.1 90.59 266.26 94.22C266.01 95.3 266.6 96.57 267.74 96.83C268.83 97.08 270.08 96.5 270.35 95.35C271.2 91.72 272.05 88.08 272.89 84.45C273.14 83.37 272.55 82.1 271.41 81.84C270.32 81.59 269.07 82.17 268.8 83.32Z" fill="#562425"/>
<path d="M238.79 115.32C216.35 93.21 186.23 96.29 181.88 133.12C177.1 162.5 169.33 184.83 162.47 210.45C157.86 231.9 179.17 245.12 198.5 237.82C196.01 249.33 217.06 257.77 226.19 246.45C231.25 256.01 246.2 261.3 257.27 257.02C273.39 250.78 274.46 224.82 276.12 206.83C278.22 187.68 283.02 168.98 286.99 150.13C294.69 113.55 265.33 101.29 238.79 115.33V115.32Z" fill="#F4B400"/>
<path d="M230.06 112.93C221.47 114.72 214.73 121.41 210.84 129.02C206.63 137.24 204.83 146.68 203.48 155.75C200.84 173.48 200.54 191.47 199.01 209.31C198.17 219.09 197.03 228.88 194.76 238.44C194.13 241.1 198.23 242.23 198.86 239.57C202.92 222.46 203.69 204.7 204.81 187.21C205.36 178.63 205.92 170.03 206.96 161.49C208 152.95 209.45 144.28 212.34 136.21C215.47 127.5 221.64 119.01 231.19 117.02C233.87 116.46 232.73 112.37 230.06 112.92V112.93Z" fill="#562425"/>
<path d="M247.66 118.77C253.72 135.12 252.51 152.9 248.62 169.6C244.63 186.74 237.54 202.78 231.79 219.35C228.56 228.66 225.92 238.16 224.72 247.96C224.58 249.1 225.8 250.08 226.84 250.08C228.1 250.08 228.82 249.1 228.96 247.96C231.1 230.5 238.25 214.17 244.31 197.82C250.37 181.47 255.54 164.11 256.09 146.43C256.39 136.67 255.15 126.82 251.74 117.64C251.34 116.56 250.3 115.83 249.13 116.16C248.1 116.44 247.24 117.69 247.65 118.77H247.66Z" fill="#562425"/>
<path d="M260.19 133.9C263.25 142.92 262.95 152.97 259.07 161.7C258.6 162.75 258.77 163.98 259.83 164.61C260.74 165.14 262.27 164.9 262.74 163.85C267.08 154.08 267.74 142.93 264.29 132.78C263.42 130.2 259.31 131.31 260.19 133.91V133.9Z" fill="#562425"/>
<path d="M188.81 197.72C188.46 204.67 188.12 211.62 187.77 218.57C187.63 221.3 191.88 221.3 192.02 218.57C192.37 211.62 192.71 204.67 193.06 197.72C193.2 194.99 188.95 194.99 188.81 197.72Z" fill="#562425"/>
<path d="M235.14 106.72C234.62 98.07 234.09 89.41 233.57 80.76C239.5 80.88 245.43 81.01 251.36 81.13C249.69 91.67 247.18 99.3 245.72 107.6C250.35 109.63 255.84 109.26 260 112.19C266.06 117.07 259.46 123.54 253.39 122.86C243.86 123.4 234.19 121.26 225.78 116.73C213.73 110.18 219.72 101.58 235.14 106.73" fill="#388159"/>
<path d="M94.73 200.98C103.29 241.23 111.29 281.6 120.42 321.73C124.03 337.59 129.82 343.16 146.02 343.82C211.46 346.49 256.7 344.05 317.79 343.16C341.05 342.82 335.33 335.37 366.53 201.23" fill="#F22248"/>
<path d="M95.68 212.82C130.88 213.37 166.07 213.8 201.27 214.11C236.29 214.42 271.31 214.61 306.33 214.67C326.08 214.71 345.84 214.71 365.59 214.67C368.57 214.67 371.68 213.38 373.78 211.28C375.88 209.18 377.3 205.97 377.17 203.09C376.89 196.82 372.08 191.49 365.58 191.5C330.38 191.57 295.18 191.52 259.98 191.34C224.78 191.16 189.94 190.87 154.92 190.46C135.17 190.23 115.41 189.95 95.66 189.64C92.72 189.59 89.53 190.97 87.47 193.03C85.41 195.09 83.95 198.34 84.08 201.22C84.36 207.58 89.17 212.71 95.67 212.81L95.68 212.82Z" fill="#B51A36"/>
<path d="M132.36 239.66C134.61 261.03 136.87 282.39 139.12 303.76C139.76 309.78 140.39 315.8 141.03 321.83C141.25 323.93 141.74 325.74 143.29 327.29C144.63 328.63 146.83 329.64 148.75 329.55C150.67 329.46 152.82 328.8 154.21 327.29C155.51 325.87 156.68 323.83 156.47 321.83C154.22 300.46 151.96 279.1 149.71 257.73C149.07 251.71 148.44 245.69 147.8 239.66C147.58 237.56 147.09 235.75 145.54 234.2C144.2 232.86 142 231.85 140.08 231.94C138.16 232.03 136.01 232.69 134.62 234.2C133.32 235.62 132.15 237.66 132.36 239.66Z" fill="#B51A36"/>
<path d="M164.65 239.67C165.17 260.98 165.69 282.28 166.21 303.59C166.36 309.64 166.51 315.69 166.65 321.74C166.75 325.78 170.13 329.66 174.38 329.47C178.63 329.28 182.21 326.07 182.11 321.74C181.59 300.43 181.07 279.13 180.55 257.82C180.4 251.77 180.25 245.72 180.11 239.67C180.01 235.63 176.63 231.75 172.38 231.94C168.13 232.13 164.55 235.34 164.65 239.67Z" fill="#B51A36"/>
<path d="M192.54 239.67C193.06 260.98 193.58 282.28 194.1 303.59C194.25 309.64 194.4 315.69 194.54 321.74C194.64 325.78 198.02 329.66 202.27 329.47C206.52 329.28 210.1 326.07 210 321.74C209.48 300.43 208.96 279.13 208.44 257.82C208.29 251.77 208.14 245.72 208 239.67C207.9 235.63 204.52 231.75 200.27 231.94C196.02 232.13 192.44 235.34 192.54 239.67Z" fill="#B51A36"/>
<path d="M313.45 239.66C311.2 261.03 308.94 282.39 306.69 303.76C306.05 309.78 305.42 315.8 304.78 321.83C304.59 323.68 305.78 326.03 307.04 327.29C308.38 328.63 310.58 329.64 312.5 329.55C314.42 329.46 316.57 328.8 317.96 327.29C319.43 325.69 320 323.98 320.22 321.83C322.47 300.46 324.73 279.1 326.98 257.73C327.62 251.71 328.25 245.69 328.89 239.66C329.08 237.81 327.89 235.46 326.63 234.2C325.29 232.86 323.09 231.85 321.17 231.94C319.25 232.03 317.1 232.69 315.71 234.2C314.24 235.8 313.67 237.51 313.45 239.66Z" fill="#B51A36"/>
<path d="M281.17 239.67C280.65 260.98 280.13 282.28 279.61 303.59C279.46 309.64 279.31 315.69 279.17 321.74C279.07 325.78 282.79 329.65 286.9 329.47C291.17 329.28 294.52 326.08 294.63 321.74C295.15 300.43 295.67 279.13 296.19 257.82C296.34 251.77 296.49 245.72 296.63 239.67C296.73 235.63 293.01 231.76 288.9 231.94C284.79 232.12 281.28 235.33 281.17 239.67Z" fill="#B51A36"/>
<path d="M253.27 239.67C252.75 260.98 252.23 282.28 251.71 303.59C251.56 309.64 251.41 315.69 251.27 321.74C251.17 325.78 254.89 329.65 259 329.47C263.11 329.29 266.62 326.08 266.73 321.74C267.25 300.43 267.77 279.13 268.29 257.82C268.44 251.77 268.59 245.72 268.73 239.67C268.83 235.63 265.11 231.76 261 231.94C256.89 232.12 253.38 235.33 253.27 239.67Z" fill="#B51A36"/>
<path d="M222.75 201.49C220.52 198.94 218.25 197.96 205.78 204.41C193.32 210.86 170.67 224.72 127.68 251.85C109.64 263.24 98.22 270.88 91.92 276.77C85.62 282.66 84.45 286.79 86.9 291.15C90.46 297.5 99.19 292.63 160.16 254.11C221.88 213.52 228.25 209.44 222.75 201.49Z" fill="#562425"/>
<path d="M238.52 201.49C240.75 198.94 243.02 197.96 255.49 204.41C267.95 210.86 290.6 224.72 333.59 251.85C351.63 263.24 363.05 270.88 369.35 276.77C375.65 282.66 376.82 286.79 374.37 291.15C370.81 297.5 362.08 292.63 301.11 254.11C239.39 213.52 233.02 209.44 238.52 201.49Z" fill="#562425"/>
<path d="M304.81 223.35C317.79 223.6 330.78 223.86 343.76 224.11C346.5 224.16 346.5 219.91 343.76 219.86C330.78 219.61 317.79 219.35 304.81 219.1C302.07 219.05 302.07 223.3 304.81 223.35Z" fill="#562425"/>
<path d="M221.46 255.52C221.65 272.1 221.84 288.68 222.03 305.26C222.06 307.99 226.31 308 226.28 305.26C226.09 288.68 225.9 272.1 225.71 255.52C225.68 252.79 221.43 252.78 221.46 255.52Z" fill="#562425"/>
<path d="M234.15 262.15C234.31 272.51 234.47 282.87 234.63 293.24C234.67 295.97 238.92 295.98 238.88 293.24C238.72 282.88 238.56 272.52 238.4 262.15C238.36 259.42 234.11 259.41 234.15 262.15Z" fill="#562425"/>
<path d="M89.82 305.55C95.87 314.56 104.79 324.05 112.66 331.77C98.87 333.36 85.01 334.43 71.14 334.97L59.49 354.84C93.84 353.72 105.42 353.76 126.78 366.54C126.78 366.54 140.69 358.99 146.74 337.32C130.92 322.76 116 306.58 99.7 292.82C94.61 296.62 91.71 299.41 89.82 305.56V305.55ZM119.02 337.28C119.02 337.28 118.95 337.32 118.92 337.3C118.89 337.28 118.88 337.23 118.9 337.2C118.92 337.16 118.97 337.16 119 337.18C119.03 337.2 119.04 337.25 119.02 337.28Z" fill="#4BAC76"/>
<path d="M64.4 254.76C60.23 241.48 39.96 248.72 45.14 261.64C36.72 249.84 18.44 262.47 26.49 274.52C12.78 271.8 3.79 290.11 14.31 299.3L14.83 300.16C0.999998 294.58 -4.74 316.38 10.03 318.34C-4.85 322.96 -2.73 346.71 13.52 340.51C-0.920001 351.38 17.38 376.04 31.7 362.98C31.36 378.98 52.71 374.06 52.98 357.41C62.83 368.23 80.42 354.77 72.57 342.44C81.58 346.39 90.55 335.17 84.71 327.25C94.19 327.57 102.17 316.71 99.04 307.75C105.44 303.35 111.85 297.75 113.37 290.14C114.89 282.52 108.63 273.28 101.01 274.77C113.35 269.29 102.11 252.13 92.16 261.24C97.17 242.08 68.41 235.36 64.4 254.74V254.76ZM40.42 314.04C40.42 314.04 40.35 314.08 40.32 314.06C40.29 314.04 40.28 313.99 40.3 313.96C40.32 313.92 40.37 313.92 40.4 313.94C40.43 313.96 40.44 314.01 40.42 314.04Z" fill="#388159"/>
<path d="M41.2 324.98C38.31 325.6 33.83 324.56 33.43 321.06C32.88 316.32 38.37 314.46 42.11 314.61C44.55 314.71 44.94 311.1 42.67 310.44C40.4 309.78 37.96 309.08 36 307.65C34.44 306.51 32.99 304.54 33.25 302.5C33.46 300.83 34.88 299.55 36.35 298.92C38.8 297.86 41.66 298.41 44.13 299.06C46.83 299.77 47.76 295.93 45.26 294.96C41.32 293.43 39.57 287.77 41.86 284.26C44.15 280.75 49.99 280.18 53.02 283.09C55 284.98 58.01 281.98 56.02 280.09C50.98 275.27 41.97 276.18 38.18 282.12C34.39 288.06 37.71 296.57 44.12 299.06L45.25 294.96C41.78 294.04 38.02 293.6 34.63 295.06C31.93 296.22 29.61 298.58 29.11 301.56C28.57 304.74 30 307.95 32.32 310.11C34.88 312.48 38.26 313.58 41.53 314.54L42.09 310.37C38.7 310.24 35.22 311.07 32.59 313.31C30.23 315.32 28.83 318.53 29.22 321.63C30 327.81 36.89 330.24 42.31 329.09C44.98 328.52 43.85 324.42 41.18 324.99L41.2 324.98Z" fill="#562425"/>
<path d="M74.77 306.2C72.19 306.03 66.83 304.74 68.24 300.98C69.65 297.22 74.16 297.71 77.14 298.71C79.4 299.47 80.95 295.89 78.78 294.83C75.95 293.44 70.11 290.54 72.35 286.44C73.25 284.8 75.04 283.99 76.86 284C77.91 284 78.97 284.24 79.93 284.66C80.37 284.85 81.5 285.29 81.49 285.87C81.45 288.61 85.7 288.61 85.74 285.87C85.79 282.33 81.89 280.47 78.89 279.94C75.5 279.35 71.88 280.25 69.62 282.97C67.36 285.69 67.11 289.1 68.74 292.15C70.37 295.2 73.58 297 76.64 298.5L78.28 294.62C72.95 292.83 65.71 293.91 64.05 300.2C63.34 302.87 64.32 305.7 66.35 307.53C68.68 309.64 71.73 310.26 74.78 310.46C77.51 310.64 77.5 306.39 74.78 306.21L74.77 306.2Z" fill="#562425"/>
<path d="M62.26 338.61C61.82 338.52 61.39 338.4 60.97 338.24C61.48 338.44 60.81 338.15 60.72 338.1C60.52 337.99 60.33 337.88 60.15 337.75C60.06 337.69 59.97 337.62 59.88 337.56C60.09 337.72 60.1 337.73 59.92 337.58C59.8 337.46 59.67 337.36 59.55 337.24C59.39 337.08 59.25 336.91 59.1 336.75C58.95 336.57 58.96 336.58 59.12 336.78C59.05 336.69 58.99 336.6 58.93 336.5C58.81 336.31 58.7 336.12 58.59 335.92C58.54 335.82 58.49 335.72 58.44 335.62C58.54 335.87 58.55 335.89 58.47 335.66C58.35 335.29 58.25 334.91 58.18 334.52C58.28 335.09 58.18 334.37 58.18 334.25C58.18 334.03 58.19 333.8 58.2 333.58C58.23 333.34 58.22 333.36 58.18 333.65C58.2 333.54 58.22 333.43 58.24 333.32C58.28 333.13 58.33 332.94 58.39 332.75C58.45 332.56 58.51 332.38 58.58 332.2C58.38 332.71 58.67 332.05 58.73 331.95C58.84 331.75 58.96 331.57 59.08 331.38C59.22 331.19 59.21 331.2 59.05 331.41C59.12 331.32 59.19 331.24 59.27 331.16C59.42 331 59.59 330.85 59.75 330.7C60.06 330.41 59.44 330.86 59.86 330.62C60.06 330.51 60.26 330.39 60.45 330.27C60.67 330.17 60.65 330.17 60.41 330.27C60.52 330.23 60.62 330.19 60.73 330.15C60.95 330.08 61.17 330.02 61.39 329.97C61.5 329.95 61.61 329.92 61.73 329.91C61.45 329.95 61.43 329.95 61.68 329.93C62.08 329.93 62.47 329.91 62.88 329.95C62.32 329.89 63.04 330 63.16 330.03C63.38 330.09 63.59 330.16 63.81 330.24C63.31 330.07 63.97 330.33 64.07 330.39C64.16 330.44 64.76 330.85 64.35 330.54C65.23 331.22 66.51 331.46 67.35 330.54C68.05 329.78 68.29 328.26 67.35 327.54C65.7 326.26 63.71 325.51 61.6 325.7C59.49 325.89 57.55 326.71 56.17 328.29C53.47 331.37 53.19 336 55.72 339.27C57.06 341 58.98 342.29 61.15 342.71C62.24 342.92 63.5 342.4 63.76 341.23C64 340.18 63.44 338.84 62.28 338.62L62.26 338.61Z" fill="#562425"/>
<path d="M34.22 349.74C33.45 349.84 32.67 349.9 31.9 349.88C31.65 349.88 31 349.95 30.78 349.81C30.98 349.94 31.07 349.86 30.84 349.81C30.76 349.79 30.67 349.78 30.59 349.76C30.37 349.72 30.15 349.67 29.93 349.61C29.77 349.57 29.6 349.52 29.44 349.46C29.36 349.43 29.28 349.4 29.2 349.37C28.78 349.22 29.2 349.39 29.24 349.39C28.98 349.41 28.46 348.97 28.25 348.83C27.92 348.63 28.51 349.07 28.22 348.81C28.09 348.7 27.97 348.59 27.85 348.46C27.75 348.36 27.65 348.25 27.55 348.14C27.49 348.07 27.35 347.82 27.49 348.07C27.63 348.32 27.49 348.05 27.45 347.99C27.29 347.75 27.19 347.38 27 347.17C27 347.17 27.15 347.57 27.08 347.35C27.05 347.26 27.02 347.17 26.99 347.08C26.94 346.92 26.91 346.76 26.87 346.6C26.78 346.23 26.89 347.03 26.87 346.54C26.87 346.4 26.86 346.26 26.87 346.12C26.89 345.59 26.78 346.43 26.87 346.06C26.91 345.88 26.96 345.7 27.02 345.52C27.14 345.14 26.83 345.85 27.02 345.52C27.1 345.39 27.17 345.26 27.25 345.13C27.27 345.1 27.36 345 27.36 344.97C27.36 345 27.07 345.28 27.23 345.15C27.36 345.04 27.46 344.9 27.58 344.78C27.64 344.72 27.98 344.45 27.71 344.66C27.43 344.88 27.85 344.58 27.92 344.53C28.03 344.46 28.15 344.4 28.26 344.33C28.34 344.29 28.42 344.25 28.5 344.21C28.78 344.06 28.42 344.29 28.36 344.26C28.42 344.29 28.8 344.1 28.87 344.08C29.02 344.03 29.18 343.99 29.33 343.95C29.51 343.9 29.69 343.86 29.87 343.83C29.94 343.82 30.01 343.81 30.08 343.79C30.37 343.74 30.03 343.8 29.93 343.81C30.67 343.8 31.39 343.71 32.14 343.77C33.25 343.86 34.31 342.73 34.26 341.65C34.2 340.42 33.32 339.62 32.14 339.53C28.89 339.26 24.84 340.32 23.31 343.51C22.38 345.45 22.53 347.54 23.45 349.45C24.37 351.36 25.97 352.58 27.82 353.33C29.85 354.16 32.14 354.24 34.29 353.96C35.39 353.82 36.47 353.08 36.41 351.84C36.36 350.81 35.47 349.56 34.29 349.72L34.22 349.74Z" fill="#562425"/>
<path d="M68.75 269.51C68.58 269.34 68.41 269.17 68.26 268.97C68.55 269.35 68.13 268.73 68.09 268.65C68.04 268.57 67.74 267.88 67.92 268.34C67.85 268.17 67.79 268 67.74 267.82C67.67 267.58 67.62 267.35 67.57 267.11C67.53 266.86 67.53 266.87 67.57 267.13C67.56 267.01 67.55 266.89 67.54 266.76C67.51 266.33 67.53 265.9 67.58 265.47C67.52 265.99 67.64 265.25 67.66 265.15C67.71 264.93 67.78 264.71 67.85 264.49C67.89 264.38 67.93 264.27 67.97 264.17C67.86 264.41 67.86 264.42 67.96 264.2C68.04 264.05 68.11 263.89 68.19 263.74C68.3 263.54 68.42 263.34 68.55 263.15C68.61 263.05 68.68 262.96 68.75 262.87C68.59 263.07 68.59 263.08 68.74 262.89C69.03 262.57 69.34 262.28 69.65 261.98C69.77 261.88 69.74 261.91 69.55 262.05C69.64 261.98 69.73 261.92 69.83 261.85C70.02 261.72 70.21 261.61 70.41 261.5C70.51 261.45 70.61 261.4 70.71 261.35C70.46 261.45 70.45 261.45 70.67 261.37C70.86 261.31 71.05 261.24 71.24 261.19C71.43 261.14 71.62 261.1 71.81 261.07C71.23 261.17 71.94 261.07 72.07 261.07C72.29 261.07 72.51 261.08 72.73 261.1C73.17 261.13 72.34 261.02 72.9 261.14C73.09 261.18 73.27 261.23 73.46 261.29C73.57 261.33 74.21 261.61 73.72 261.37C73.92 261.47 74.11 261.56 74.3 261.68C74.35 261.71 74.88 262.05 74.63 261.88C74.38 261.71 74.86 262.09 74.91 262.13C75.07 262.28 75.21 262.44 75.35 262.6C75 262.2 75.42 262.73 75.48 262.83C75.59 263.02 75.69 263.21 75.77 263.42C76.22 264.44 77.79 264.75 78.68 264.18C79.74 263.5 79.92 262.37 79.44 261.27C77.9 257.77 73.43 256.05 69.86 257.16C66.01 258.35 63.39 262.13 63.28 266.11C63.22 268.46 64.08 270.84 65.76 272.51C66.55 273.29 67.98 273.36 68.76 272.51C69.54 271.66 69.61 270.34 68.76 269.51H68.75Z" fill="#562425"/>
<path d="M92.12 344.93C102.61 343.1 113.43 343.14 123.91 345.04C125.04 345.24 126.2 344.73 126.52 343.56C126.8 342.53 126.17 341.15 125.04 340.95C113.76 338.9 102.29 338.87 90.99 340.84C89.86 341.04 89.22 342.42 89.51 343.45C89.84 344.64 90.99 345.13 92.12 344.93Z" fill="#562425"/>
<path d="M108.63 352.13C110.66 351.92 112.7 351.89 114.73 352.06C116.49 352.21 118.43 352.58 120.38 353.14C121.45 353.45 122.74 352.77 122.99 351.66C123.24 350.55 122.65 349.38 121.51 349.05C117.35 347.85 112.94 347.44 108.63 347.89C107.53 348.01 106.45 348.78 106.51 350.01C106.56 351.06 107.45 352.26 108.63 352.13Z" fill="#562425"/>
<path d="M151.36 345.02C147.19 341.77 142.83 338.79 138.25 336.14C137.29 335.58 135.88 335.88 135.34 336.9C134.8 337.92 135.07 339.21 136.1 339.81C138.27 341.07 140.41 342.39 142.49 343.79C143.53 344.49 144.56 345.21 145.58 345.94C146.09 346.31 146.59 346.68 147.1 347.06C147.35 347.25 147.6 347.44 147.85 347.63C147.97 347.73 148.1 347.82 148.22 347.92C148.1 347.83 148.14 347.86 148.35 348.02C149.22 348.7 150.51 348.94 151.35 348.02C152.05 347.26 152.29 345.74 151.35 345.02H151.36Z" fill="#562425"/>
<path d="M150.22 344.61C143.91 344.08 137.58 343.78 131.24 343.73C128.5 343.71 128.5 347.96 131.24 347.98C137.57 348.03 143.9 348.33 150.22 348.86C151.36 348.96 152.34 347.81 152.34 346.74C152.34 345.51 151.36 344.71 150.22 344.62V344.61Z" fill="#562425"/>
<path d="M148.44 345.95C143.54 348.57 138.54 351 133.45 353.24C132.4 353.7 132.16 355.24 132.69 356.15C133.32 357.23 134.54 357.38 135.6 356.91C140.69 354.67 145.69 352.24 150.59 349.62C151.6 349.08 151.92 347.68 151.35 346.71C150.75 345.69 149.46 345.41 148.44 345.95Z" fill="#562425"/>
<path d="M147.29 346.94C145.58 351.29 143.35 355.72 140.83 359.84C140.25 360.79 140.59 362.22 141.59 362.75C142.59 363.28 143.88 363 144.5 361.99C147.2 357.56 149.48 352.9 151.38 348.07C151.79 347.03 150.93 345.69 149.9 345.46C148.68 345.18 147.72 345.83 147.29 346.94Z" fill="#562425"/>
<path d="M152.4 346.94C150.61 342.21 148.65 337.54 146.52 332.95C146.05 331.94 144.51 331.61 143.61 332.19C142.57 332.86 142.35 334.02 142.85 335.1C144.85 339.41 146.62 343.63 148.3 348.07C148.69 349.11 149.75 349.93 150.91 349.55C151.92 349.22 152.81 348.05 152.39 346.94H152.4Z" fill="#562425"/>
<path d="M147.76 347.71C147.92 352.34 148.09 356.96 148.25 361.59C148.29 362.7 149.2 363.77 150.37 363.71C151.54 363.65 152.54 362.78 152.49 361.59C152.33 356.96 152.16 352.34 152 347.71C151.96 346.6 151.05 345.53 149.88 345.59C148.71 345.65 147.71 346.52 147.76 347.71Z" fill="#562425"/>
<path d="M338.2 315.93C377.16 307.83 415.67 297.55 453.48 285.16C455.54 294.44 457.59 303.72 459.65 313C411.85 322.88 362.08 318.19 314 326.58" fill="#4BAC76"/>
<path d="M301.53 321.82C341.2 306.95 380.65 291.48 419.85 275.4C422.21 282.34 424.57 289.28 426.94 296.22C396.16 305.49 341.64 319.46 335.28 322.68C335.28 322.68 403.9 313.78 439.44 312.46C440.13 312.43 440.87 312.43 441.42 312.83C442.08 313.32 442.25 314.23 442.35 315.05C443.19 321.7 443.71 328.39 443.9 335.09C398.96 331.67 317.36 338.54 272.29 339.14" fill="#388159"/>
<path d="M206.85 331.98C270.24 324.76 329.71 298.61 388.04 272.78C391.95 278.2 394.93 284.29 396.81 290.71C363.11 307.86 327.68 321.32 292.33 334.75C331.27 331.8 370.3 329.94 409.34 329.18C409.81 336.74 410.28 344.3 410.75 351.85C365.93 350.12 321.11 346.6 276.24 346.96C243.35 347.49 210.5 351.1 178.28 357.71C171.8 359.04 164.99 360.48 158.69 358.48C147.47 355.16 145.3 340.71 156.45 336C170.61 327.86 189.05 333.48 206.84 332" fill="#4BAC76"/>
<path d="M237.35 348.89C236.49 347.69 235.31 346.75 234.01 346.07C232.63 345.35 231.12 344.92 229.59 344.65C227.99 344.37 226.35 344.27 224.72 344.29C223.14 344.31 221.56 344.44 219.99 344.66C219.91 344.67 219.9 344.56 219.97 344.54C220.88 344.36 221.81 344.01 222.49 343.36C222.93 342.94 223.25 342.39 223.32 341.79C223.39 341.23 223.25 340.66 222.94 340.19C222.08 338.88 220.36 338.57 218.91 338.71C218.83 338.71 218.82 338.61 218.89 338.59C219.36 338.49 219.82 338.39 220.28 338.28C222.2 337.85 224.12 337.4 226.03 336.92C227.95 336.44 229.85 335.92 231.74 335.35C233.63 334.78 235.5 334.17 237.36 333.5C238.57 333.06 239.78 332.6 240.98 332.11C241.89 331.74 242.78 331.34 243.66 330.91C244.54 330.48 245.41 330.01 246.23 329.47C246.91 329.03 247.59 328.53 248.11 327.91C248.48 327.48 248.81 326.93 248.73 326.34C248.63 325.66 248.01 325.19 247.46 324.87C247.43 324.85 247.4 324.84 247.38 324.83C234.03 327.96 220.53 330.42 206.84 331.98C189.05 333.46 170.61 327.85 156.45 335.98C145.3 340.69 147.47 355.14 158.69 358.46C164.99 360.46 171.8 359.02 178.28 357.69C197.81 353.68 217.56 350.79 237.42 349.01C237.39 348.97 237.37 348.92 237.34 348.88L237.35 348.89Z" fill="white"/>
<path d="M394.5 288.89C377.97 297.08 361.39 305.2 344.5 312.63C327.67 320.03 310.5 326.75 292.84 331.88C283.28 334.66 273.57 336.94 263.74 338.52C262.61 338.7 261.98 340.11 262.26 341.13C262.59 342.34 263.74 342.8 264.87 342.61C282.65 339.76 299.99 334.6 316.87 328.4C334.51 321.91 351.71 314.26 368.68 306.2C378.05 301.75 387.35 297.17 396.65 292.56C399.1 291.35 396.95 287.68 394.51 288.89H394.5Z" fill="#562425"/>
<path d="M439.31 310.46C409.83 315.91 379.79 316.73 349.97 319.2C341.48 319.9 333 320.74 324.55 321.82C323.41 321.97 322.43 322.69 322.43 323.94C322.43 324.97 323.41 326.21 324.55 326.06C354.63 322.2 385.01 321.67 415.14 318.25C423.61 317.29 432.05 316.1 440.43 314.55C441.56 314.34 442.2 312.97 441.91 311.94C441.58 310.75 440.43 310.25 439.3 310.46H439.31Z" fill="#562425"/>
<path d="M388.64 326.67C374.26 327.18 359.87 327.53 345.48 327.73C342.75 327.77 342.74 332.02 345.48 331.98C359.87 331.78 374.26 331.43 388.64 330.92C391.37 330.82 391.38 326.57 388.64 326.67Z" fill="#562425"/>
<path d="M361.88 295.53C352.5 299.81 343.11 304.09 333.73 308.37C332.69 308.85 332.43 310.36 332.97 311.28C333.6 312.35 334.83 312.52 335.88 312.04C345.26 307.76 354.65 303.48 364.03 299.2C365.07 298.72 365.33 297.21 364.79 296.29C364.16 295.22 362.93 295.05 361.88 295.53Z" fill="#562425"/>
</g>
<defs>
<clipPath id="clip0_16_350">
<rect width="459.64" height="385.21" fill="white"/>
</clipPath>
</defs>
</svg>
